<svg xmlns="http://www.w3.org/2000/svg" width="177" height="60" viewBox="0 0 177 60" fill="none"><path d="M20.7319 0.197498C20.0415 0.197498 19.6667 0.0789993 19.1735 0.0197498C14.7549 11.2377 5.54296 31.5602 0 43.6471C0.808759 43.5286 1.55834 43.2719 2.74189 43.2719C3.92544 43.2719 4.55667 43.5089 5.28652 43.6471C7.33801 35.7275 9.84319 30.1777 11.0859 27.314H26.8469C28.4052 30.7505 30.9498 36.1619 33.1394 43.6471C34.323 43.4694 35.5065 43.2719 37.124 43.2719C38.6824 43.2719 39.7278 43.4496 40.793 43.6471C40.655 43.4101 26.906 13.0941 22.1127 0C21.5998 0.138249 21.2842 0.197498 20.7319 0.197498ZM12.3286 24.2133L18.8776 8.74918L25.6041 24.2133H12.3286Z" fill="white" fill-opacity="0.45"></path><path d="M59.5523 13.0349C49.3343 13.0349 44.6001 20.2634 44.6001 28.8743C44.6001 38.4925 50.3995 44.4767 59.8679 44.4767C64.9177 44.4767 68.7248 43.0349 71.447 40.4082C71.5062 39.4207 71.5062 38.4135 71.881 36.6755L71.1314 36.4977C70.1845 37.8012 67.3243 41.5339 61.229 41.5339C59.434 41.5339 55.3704 41.3562 52.5102 36.6755C50.8335 33.8117 50.8335 30.2568 50.8335 28.5188H73.1829C73.2421 25.1416 73.4196 13.0349 59.5523 13.0349ZM50.8729 25.8921C51.4253 19.6511 54.0488 15.5431 59.4734 15.5431C66.9495 15.5431 66.9495 23.8381 66.9495 25.8921H50.8729Z" fill="white" fill-opacity="0.45"></path><path d="M90.5021 25.6353C88.3323 25.0823 84.6435 23.7591 84.6435 20.1448C84.6435 17.4589 86.6358 15.4641 90.4232 15.4641C91.4292 15.4641 93.1651 15.6024 94.467 16.5306C96.2818 17.7749 96.6566 19.3351 96.8933 20.2633H97.702C97.8993 18.1501 98.3333 16.6491 98.9448 15.0296C97.5048 14.2989 95.0193 12.9757 90.7191 12.9757C82.1186 12.9757 79.9291 18.7229 79.9291 22.2581C79.9291 27.7485 84.3477 29.684 87.0304 30.553C93.5596 32.6662 95.69 33.3575 95.69 36.9125C95.69 40.4674 92.6325 42.0277 89.3975 42.0277C88.0364 42.0277 86.3991 41.7709 84.8605 40.8427C82.5526 39.4602 81.9411 37.7814 81.4874 36.715L80.7378 36.8927C80.6195 37.7024 80.1263 40.3884 79.2978 41.8894C79.9883 42.3832 83.46 44.4964 88.5098 44.4964C97.1694 44.4964 100.483 39.2034 100.483 34.4635C100.523 28.262 96.0451 27.077 90.5021 25.6353Z" fill="white" fill-opacity="0.45"></path><path d="M122.636 12.9757C113.285 12.9757 106.796 19.0191 106.796 28.736C106.796 41.5142 116.008 44.5161 122.636 44.5161C132.084 44.5161 138.949 38.2752 138.949 28.3608C138.949 20.7768 134.471 12.9757 122.636 12.9757ZM122.695 42.0277C116.954 42.0277 113.167 37.2285 113.167 28.5583C113.167 26.682 113.167 15.4641 123.01 15.4641C131.118 15.4641 132.597 23.7591 132.597 28.6175C132.597 36.8532 128.672 42.0277 122.695 42.0277Z" fill="white" fill-opacity="0.45"></path><path d="M163.172 12.9164C156.268 12.9164 153.585 17.2811 152.599 18.9006C152.599 17.5971 152.599 16.6491 152.856 13.2324C151.988 13.4101 150.922 13.6076 149.798 13.6076C148.614 13.6076 147.608 13.4299 146.741 13.2324C146.938 22.2778 147.056 29.9408 147.056 35.6287C147.056 43.7459 146.879 51.9026 146.366 60C147.352 59.7433 148.161 59.6248 149.719 59.6248C151.218 59.6248 152.027 59.7433 152.954 60C152.579 54.2725 152.639 48.5846 152.639 38.8084C153.645 41.3759 156.939 44.5951 162.797 44.5951C170.944 44.5951 177 38.4134 177 28.578C177.02 17.4589 169.406 12.9164 163.172 12.9164ZM161.693 41.4154C158.832 41.4154 156.702 40.2897 155.104 38.3542C153.783 36.8137 152.54 34.74 152.54 29.2495C152.54 23.0678 153.842 20.8361 155.104 19.2758C156.544 17.4589 158.714 16.0369 162.087 16.0369C166.131 16.0369 170.609 19.4536 170.609 28.8743C170.589 30.869 170.589 41.4154 161.693 41.4154Z" fill="white" fill-opacity="0.45"></path><path d="M68.4092 5.25354H51.1886V7.20877H68.4092V5.25354Z" fill="white" fill-opacity="0.45"></path></svg>