<svg xmlns="http://www.w3.org/2000/svg" width="189" height="50" viewBox="0 0 189 50" fill="none"><path d="M115.582 17.6496C113.302 11.8932 107.69 7.82132 101.126 7.82132C92.5413 7.82132 85.579 14.7841 85.579 23.377C85.579 31.9664 92.5377 38.9327 101.126 38.9327C107.69 38.9327 113.302 34.8609 115.582 29.1045V37.951H116.705V8.54585H115.582V17.6496ZM111.321 33.5784C108.711 36.1904 105.108 37.8061 101.122 37.8061C97.1358 37.8061 93.5369 36.1904 90.9229 33.5784C88.3125 30.9665 86.6977 27.362 86.6977 23.3734C86.6977 19.3849 88.3125 15.7839 90.9229 13.1684C93.5333 10.5564 97.1358 8.94072 101.122 8.94072C105.105 8.94072 108.707 10.5564 111.321 13.1684C113.931 15.7803 115.546 19.3849 115.546 23.3734C115.546 27.362 113.935 30.9629 111.321 33.5784Z" fill="white" fill-opacity="0.45"></path><path d="M72.4943 7.77424C68.0917 7.76699 65.1554 9.79206 63.4103 12.2482C62.65 13.3133 62.1033 14.4508 61.7231 15.5485C61.3683 14.2914 60.7746 12.9691 59.8513 11.77C58.1352 9.53123 55.246 7.76699 50.8724 7.77786C46.4698 7.77062 43.5335 9.79569 41.7884 12.2519C41.2562 12.9945 40.8326 13.777 40.4922 14.5522V8.55311H39.3699V37.9583H40.4922C40.4922 37.9583 40.4886 19.3668 40.4886 19.3486C40.4959 17.7474 41.1295 15.0956 42.7044 12.9076C44.3011 10.6941 46.821 8.91538 50.8724 8.90451C54.9527 8.91176 57.4256 10.4804 58.9643 12.462C60.4958 14.4399 61.0425 16.8925 61.0425 18.5517V38.0669H62.1649V18.932C62.2626 17.3127 62.8853 14.9181 64.3263 12.9112C65.923 10.6977 68.4429 8.919 72.4943 8.90813C76.5746 8.91538 79.0475 10.484 80.5862 12.4656C82.1177 14.4436 82.6644 16.8961 82.6608 18.5553V38.0706H83.7832V18.5553C83.7832 16.6715 83.193 14.0161 81.4733 11.7809C79.7571 9.5421 76.8679 7.77786 72.4943 7.78873V7.77424Z" fill="white" fill-opacity="0.45"></path><path d="M172.472 8.48066L171.248 8.46979L159.196 36.4585L147.827 8.49152L146.618 8.49515L158.573 37.9075L153.363 49.9964L154.59 50L172.472 8.48066Z" fill="white" fill-opacity="0.45"></path><path d="M187.762 25.5905C186.567 23.9675 184.387 22.7757 180.401 21.6998C177.125 20.8158 175.47 19.4791 174.612 18.3053C173.754 17.1316 173.674 16.0846 173.674 15.7187C173.674 15.668 173.674 15.6318 173.674 15.6101C173.674 15.5992 173.674 15.5919 173.674 15.5883L173.681 15.534V15.4796C173.681 15.4796 173.674 15.4652 173.674 15.4144C173.674 15.3637 173.671 15.2913 173.671 15.1935C173.671 14.5414 173.783 12.922 174.652 11.5309C175.528 10.1471 177.078 8.91538 180.307 8.89727C183.703 8.91176 185.303 10.2195 186.19 11.6215C187.07 13.0307 187.15 14.6211 187.146 15.063C187.146 15.1464 187.146 15.1826 187.146 15.1826L188.269 15.2405C188.269 15.2405 188.269 15.1717 188.269 15.0667C188.269 14.5124 188.193 12.7373 187.143 11.0346C186.1 9.32112 184 7.76337 180.303 7.77786C176.777 7.76337 174.728 9.24866 173.692 10.9404C172.653 12.625 172.545 14.4327 172.545 15.1971C172.545 15.3529 172.548 15.4652 172.552 15.5267C172.552 15.5702 172.545 15.639 172.545 15.7224C172.545 16.2549 172.668 17.5627 173.7 18.9719C174.728 20.3847 176.647 21.8592 180.104 22.7866C184.004 23.8335 185.923 24.971 186.849 26.2534C187.784 27.525 187.881 29.1153 187.878 31.3397C187.878 33.0061 187.077 34.6327 185.72 35.8535C184.362 37.0707 182.461 37.8641 180.3 37.8641C178.547 37.8641 176.607 37.2663 175.133 36.0201C173.66 34.7703 172.624 32.9083 172.617 30.2311H171.495C171.487 33.209 172.697 35.4478 174.409 36.8823C176.122 38.3205 178.301 38.9907 180.3 38.9907C185.169 38.9907 188.986 35.4152 189 31.3433C189 29.1262 188.942 27.2316 187.755 25.5941L187.762 25.5905Z" fill="white" fill-opacity="0.45"></path><path d="M20.4815 19.0262L16.5676 6.98088L12.6574 19.0262H0L10.2389 26.4708L6.32872 38.5162L16.5676 31.0716L26.8102 38.5162L22.8964 26.4708L33.1389 19.0262H20.4815Z" fill="white" fill-opacity="0.45"></path><path d="M172.125 5.83249L174.018 4.45588L175.912 5.83249L175.188 3.60455L177.081 2.22794H174.742L174.018 0L173.294 2.22794H170.952L172.845 3.60455L172.125 5.83249Z" fill="white" fill-opacity="0.45"></path><path d="M133.479 8.94434C137.461 8.94434 141.064 10.5601 143.678 13.172C144.999 14.4979 146.068 16.0737 146.799 17.8307H148.008C145.774 11.9801 140.115 7.82494 133.482 7.82132C124.898 7.82132 117.936 14.7841 117.936 23.377C117.936 31.9664 124.895 38.9327 133.482 38.9327C140.079 38.9327 145.716 34.821 147.976 29.0175H146.763C146.035 30.7347 144.981 32.2815 143.682 33.5821C141.071 36.194 137.469 37.8097 133.482 37.8097C129.5 37.8097 125.897 36.194 123.283 33.5821C120.673 30.9701 119.058 27.3656 119.058 23.377C119.058 19.3885 120.673 15.7876 123.283 13.172C125.894 10.5601 129.496 8.94434 133.482 8.94434H133.479Z" fill="white" fill-opacity="0.45"></path></svg>