<svg xmlns="http://www.w3.org/2000/svg" id="Layer_1" viewBox="0 0 188.74 203.29"><defs><style>.cls-1{fill:none}</style></defs><path d="M94.38 55.93c10.71 0 19.42-8.71 19.42-19.42s-8.71-19.42-19.42-19.42-19.42 8.71-19.42 19.42 8.71 19.42 19.42 19.42M148.95 80.46c-.04-.14-.07-.28-.1-.41-.86-4.05-4.5-6.98-8.63-6.98H47.99c-4.21 0-7.86 3-8.67 7.14q-.045.255-.12.51l-21.83 83.99c-.95 5.25.58 10.92 4.12 15.21 3.35 4.06 7.87 6.3 12.73 6.3h120.31c4.86 0 9.54-2.34 12.84-6.43 3.54-4.38 5.01-10.14 3.94-15.43l-22.36-83.89Z" class="cls-1"/><path d="M187.98 160.59c-.03-.14-.06-.28-.1-.41l-22.37-83.93c-2.63-11.76-13.22-20.26-25.29-20.26H125.2c3.58-5.64 5.68-12.31 5.68-19.48C130.88 16.38 114.51 0 94.38 0s-36.5 16.38-36.5 36.51c0 7.16 2.1 13.83 5.68 19.48H47.99c-12.27 0-22.89 8.67-25.37 20.66L.77 160.68l-.12.51c-2.04 10.42.75 21.2 7.65 29.58 6.55 7.96 16 12.53 25.92 12.53h120.31c10.04 0 19.57-4.65 26.13-12.77 6.8-8.41 9.53-19.6 7.32-29.94M94.38 17.08c10.71 0 19.42 8.71 19.42 19.42s-8.71 19.42-19.42 19.42-19.42-8.71-19.42-19.42 8.71-19.42 19.42-19.42m73 162.7c-3.3 4.08-7.98 6.43-12.84 6.43H34.22c-4.86 0-9.39-2.24-12.73-6.3-3.54-4.3-5.07-9.97-4.12-15.21L39.2 80.71l.12-.51a8.846 8.846 0 0 1 8.67-7.14h92.23c4.14 0 7.77 2.94 8.63 6.98.03.14.06.28.1.41l22.36 83.89c1.07 5.29-.39 11.05-3.94 15.43Z"/></svg>