<svg xmlns="http://www.w3.org/2000/svg" id="Guides_and_Backgrounds" data-name="Guides and Backgrounds" viewBox="0 0 2594.81 1068.79"><defs><style>.cls-1{fill:#1227be}</style></defs><path d="M1121.92 214.93V62.61h46.31v152.31c0 32.57 17.37 45.95 40.16 45.95s40.16-13.75 40.16-45.95V62.61h46.31v152.31c0 32.2 17.37 45.95 40.16 45.95s40.16-13.39 40.16-45.95V62.61h46.31v152.31c0 60.78-35.82 89-82.49 89-30.03 0-53.55-12.66-67.3-36.18-13.74 23.51-37.26 36.18-67.29 36.18-46.67 0-82.49-28.22-82.49-89ZM1450.83 209.87c0-54.27 39.8-94.07 96.24-94.07s95.51 39.8 95.51 94.07v15.19h-146.53c5.79 26.05 25.69 39.8 51.01 39.8 19.18 0 33.29-5.43 42.33-17.01h45.95c-13.39 34.01-45.95 56.08-88.28 56.08-56.44 0-96.24-39.8-96.24-94.06Zm146.16-19.18c-6.87-23.88-26.41-35.81-49.93-35.81s-43.05 12.3-49.93 35.81zM1127.35 381.87h83.94c82.85 0 126.27 47.4 126.27 118.31s-43.42 118.3-126.27 118.3h-83.94zm83.94 193.93c54.63 0 79.23-29.67 79.23-75.61s-24.6-75.25-79.23-75.25h-37.63V575.8zM1360.37 529.13c0-54.27 39.8-94.07 96.24-94.07s95.51 39.8 95.51 94.07v15.19h-146.53c5.79 26.05 25.69 39.8 51.01 39.8 19.18 0 33.29-5.43 42.33-17.01h45.95c-13.39 34.01-45.95 56.08-88.28 56.08-56.44 0-96.24-39.8-96.24-94.06Zm146.17-19.18c-6.87-23.88-26.41-35.81-49.93-35.81s-43.05 12.3-49.93 35.81zM1586.51 361.61h43.06v256.87h-43.06zM1670.45 388.03c0-16.64 11.94-28.94 28.58-28.94s28.58 12.3 28.58 28.94-11.94 28.58-28.58 28.58-28.58-11.94-28.58-28.58m6.87 51.73h43.06v178.73h-43.06zM1750.41 439.76h47.03L1847 579.05l49.57-139.29h45.95l-70.19 178.73h-51.73zM1950.86 529.13c0-54.27 39.8-94.07 96.24-94.07s95.51 39.8 95.51 94.07v15.19h-146.53c5.79 26.05 25.69 39.8 51.01 39.8 19.17 0 33.29-5.43 42.33-17.01h45.95c-13.39 34.01-45.95 56.08-88.28 56.08-56.44 0-96.24-39.8-96.24-94.06Zm146.17-19.18c-6.87-23.88-26.41-35.81-49.93-35.81s-43.05 12.3-49.93 35.81zM2170.85 514.66c0-53.91 31.84-79.6 78.51-79.6s78.15 25.69 78.15 80.32v1.09h-42.69v-1.81c0-28.94-14.48-39.44-35.46-39.44s-35.45 10.5-35.45 39.44v103.83h-43.05V514.66ZM1127.35 701.14h46.31v193.92h123.73v42.69h-170.04zM1316.95 850.2c0-56.8 39.8-95.88 96.6-95.88s95.15 37.99 95.15 95.51v87.92h-39.43v-35.1c-10.85 26.41-35.09 39.8-63.31 39.8-43.42 0-89-31.12-89-92.26Zm148.7-1.81c0-31.48-20.98-53.91-52.46-53.91s-52.82 22.43-52.82 53.91 21.35 53.91 52.82 53.91 52.46-22.43 52.46-53.91M1544.18 852.01v-92.98h43.05v92.98c0 34.01 18.09 50.29 45.22 50.29s45.22-16.28 45.22-50.29v-92.98h43.06v92.98c0 59.7-35.46 90.45-88.28 90.45s-88.28-30.39-88.28-90.45ZM1756.21 844.77c0-59.7 35.45-90.45 88.28-90.45s88.28 30.39 88.28 90.45v92.98h-43.06v-92.98c0-34-18.09-50.29-45.22-50.29s-45.22 16.29-45.22 50.29v92.98h-43.05v-92.98ZM1961 846.58c0-61.14 45.59-92.26 89-92.26 25.69 0 47.03 10.86 59.7 30.75v-104.2h43.05v166.06c0 57.89-39.07 95.51-95.15 95.51s-96.6-39.07-96.6-95.88Zm148.7 1.81c0-31.48-20.98-53.91-52.46-53.91s-52.82 22.43-52.82 53.91 21.35 53.91 52.82 53.91 52.46-22.43 52.46-53.91M2188.22 833.92c0-53.91 31.84-79.6 78.51-79.6s78.15 25.69 78.15 80.32v1.09h-42.69v-1.81c0-28.94-14.47-39.44-35.45-39.44s-35.45 10.5-35.45 39.44v103.83h-43.05V833.92ZM2369.5 957.29h43.06c7.23 16.64 21.34 24.24 43.05 24.24 29.3 0 45.95-14.11 45.95-48.85v-22.43c-10.86 19.54-29.67 30.03-53.18 30.03-41.24 0-80.31-26.77-80.31-90.45v-90.81h43.05v90.81c0 34.01 18.09 50.29 45.22 50.29s45.22-17 45.22-50.29v-90.81h43.06V931.6c0 62.23-39.43 87.19-89 87.19-41.61 0-75.98-19.17-86.11-61.5ZM840.05 200.1c-.78-6.27-1.18-12.57-1.06-18.89.05-2.55.18-5.1.39-7.64.11-1.4.05-3.16.45-4.51-1.56 5.28.18-.87.4-2.11.96-5.27 2.27-10.48 3.91-15.57.8-2.47 1.47-5.92 2.93-8.07-2.71 4-.34.81.25-.47.78-1.7 1.6-3.39 2.46-5.05 2.33-4.51 4.95-8.87 7.83-13.05.78-1.12 1.59-2.22 2.38-3.33 2.73-3.84-2.83 3.29.23-.27 1.75-2.04 3.46-4.1 5.3-6.06 3.62-3.86 7.52-7.36 11.58-10.75 3.49-2.92-3.64 2.51.1-.05.71-.48 1.39-1 2.1-1.49 2.44-1.69 4.96-3.28 7.54-4.75 2.18-1.24 4.41-2.41 6.68-3.48.5-.24 4.26-1.6 1.04-.52s.6-.22 1.07-.39c4.93-1.87 10.02-3.3 15.21-4.23.67-.12 1.7-.15 2.37-.39-4.74 1.64-2.57.33-.51.15a76.673 76.673 0 0 1 14 .08c.59.06 4.52.41.84.07s1.28.28 1.99.42c4.67.92 9.25 2.24 13.72 3.89.75.28 1.5.58 2.25.87 4.08 1.53-4.2-2.02-.27-.09 2.57 1.27 5.15 2.49 7.65 3.9.77.44 11.62 7.39 11.51 7.51-.12.13-3.62-2.93-.01.03.99.81 1.96 1.64 2.93 2.48 2.26 1.99 4.45 4.06 6.55 6.22 1.52 1.56 2.99 3.16 4.43 4.8.87.99 1.69 2.02 2.54 3.01 3.01 3.49-2.55-3.6.16.16 3.14 4.37 6.12 8.81 8.73 13.52 1.32 2.39 2.57 4.82 3.73 7.29.47 1 2.75 5.05.23.3.53 1 .88 2.16 1.28 3.22 2.09 5.49 3.78 11.13 5.05 16.86.57 2.59.98 5.19 1.46 7.79.55 3.04-.46-5.03-.04-.2.13 1.47.3 2.93.41 4.41.45 6.04.44 12.12 0 18.16-.2 2.8-.52 5.59-.84 8.38-.25 2.14-1.6 3.8.1-.57-.42 1.09-.41 2.68-.61 3.84-1.02 5.94-2.38 11.83-4.1 17.6-.99 3.32-2.1 6.6-3.33 9.83-.12.32-2.45 5.81-.8 2.08-.52 1.16-1.04 2.32-1.59 3.47-3.06 6.46-6.63 12.68-10.7 18.56-.84 1.22-1.73 2.41-2.59 3.61-.74 1.03-1.37 2.87.43-.56-1.22 2.32-3.76 4.53-5.52 6.46-3.67 4.02-7.6 7.81-11.7 11.39-2 1.74-4.06 3.4-6.1 5.08-3.56 2.93 3.56-2.63-.12.11-1.04.78-2.08 1.56-3.13 2.33-4.15 3.05-8.39 5.97-12.65 8.85-8.4 5.69-16.9 11.23-25 17.35-19.78 14.96-36.92 32.66-47.01 55.66-11.29 25.73-14.42 53.69-11.58 81.56l14.55-19.11c-62.34 24.43-124.68 48.87-187.02 73.3s-124.68 48.87-187.02 73.3-124.68 48.87-187.02 73.3-124.68 48.87-187.02 73.3c-5.08 1.99-10.64 3.59-15.24 6.51-2.94 1.87-5.64 4.26-8.33 6.5-5.24 4.36-10.1 9.19-14.53 14.36-15.66 18.28-26.75 39.74-29.98 63.76-3.55 26.45 2.42 53.69 16.59 76.35s36.36 40.8 61.77 51.39c2.97 1.24 5.97 2.39 9.03 3.4 5 1.65 10.21 1.39 15.41 1.39h827.63c10.37 0 20.3-9.12 19.82-19.82s-8.71-19.82-19.82-19.82H155.15c-1.35 0-7.48-1-3.16.26-2.76-.8-5.81-1.76-8.38-3.06 4.62 2.35.22.03-.64-.37-1.32-.62-2.62-1.27-3.92-1.95-5.28-2.75-11.38-5.87-15.75-9.96 3.77 3.52.37.22-.41-.43a107.03 107.03 0 0 1-9.16-8.66c-1.59-1.69-4.61-4.11-5.47-6.28l1.39 1.83c-.56-.73-1.11-1.47-1.64-2.22-1.07-1.49-2.11-3-3.1-4.54-2.73-4.24-5-8.66-7.19-13.2-2.05-4.25 1.47 4.16-.11-.29-.46-1.28-.96-2.55-1.4-3.83-1.02-3-1.9-6.06-2.62-9.15-.44-1.89-2.11-6.18-1.52-8.03l.36 2.56c-.1-.91-.2-1.81-.27-2.72a92.437 92.437 0 0 1-.2-12.92c.08-1.47.24-2.94.35-4.41.26-2.25.21-1.93-.16.97.14-.94.3-1.87.47-2.8.98-5.34 2.45-10.6 4.35-15.69 1.64-4.39.42 0-.06-.06.04 0 .91-2.02 1.04-2.32 1.22-2.61 2.55-5.17 3.98-7.67 2.3-4.01 4.89-7.81 7.6-11.54 2.38-3.28-3.02 3.68-.47.63.66-.79 1.31-1.6 1.97-2.38q2.19-2.58 4.53-5.04c4.07-4.29 8.51-8 12.98-11.83-7.05 6.05-3.46 2.33-2.21 1.74 1.03-.49 3.31-2.68-1.8.5 3.2-1.99 7.65-3 11.17-4.38 4.34-1.7 8.68-3.4 13.03-5.11 15.51-6.08 31.02-12.16 46.52-18.23 30.4-11.91 60.79-23.83 91.19-35.74 60.79-23.83 121.58-47.65 182.37-71.48 122.2-47.89 244.4-95.79 366.6-143.68 14.89-5.83 29.78-11.67 44.66-17.5 7.51-2.94 15.48-9.97 14.55-19.11-.73-7.17-1.15-14.36-1.06-21.56.04-3.21.17-6.42.41-9.63.11-1.51.25-3.03.41-4.53.1-.98.22-1.95.34-2.92-.4 2.89-.43 3.23-.11 1.04.93-5.12 1.92-10.19 3.36-15.19.64-2.22 1.35-4.42 2.12-6.59.36-1.02.74-2.04 1.13-3.06 1.93-4.97-1.48 3-.03-.01 1.83-3.82 3.63-7.62 5.78-11.28 1.42-2.42 2.93-4.78 4.54-7.07.7-1 1.48-2.5 2.4-3.3-4 3.46.14-.08 1.08-1.19 3.37-3.94 7.01-7.63 10.85-11.11 1.88-1.71 3.81-3.37 5.78-4.98.2-.17 2.99-2.33 2.96-2.38-2.35 1.8-2.68 2.06-1.01.78.67-.51 1.35-1.01 2.02-1.51 17.93-13.25 37.27-24.44 54.01-39.3 21.42-19.01 36.8-44.05 44.99-71.45 7.6-25.45 9.37-53.06 3.93-79.08-5.07-24.26-17.3-46.96-33.96-65.21-15.59-17.08-36.33-30.47-58.74-36.5-23.33-6.28-46.94-3.64-68.9 5.93-53.23 23.18-83.55 84.88-76.51 141.3.68 5.45 1.76 9.97 5.8 14.01 3.44 3.44 9.08 6.03 14.01 5.8 9.64-.43 21.19-8.8 19.82-19.82Z" class="cls-1"/></svg>