<svg xmlns="http://www.w3.org/2000/svg" width="323" height="30" fill="none" viewBox="0 0 323 30"><path fill="#fff" fill-opacity=".45" d="M56.66 28.128a6.6 6.6 0 0 1-.887-1.08 7 7 0 0 1-.325-.572c-.33-.661-.66-1.377-.99-1.983q-.125-.249-.248-.507c-.248-.517-.507-1.074-.799-1.696-.385-.826-.826-1.762-1.376-2.864-.413-.826-.887-1.773-1.427-2.896-.181-.375-.363-.766-.556-1.179-.77-1.647-1.48-3.183-2.197-4.664v-.011c-.715-1.487-1.321-2.92-1.927-4.186-.55-1.266-1.101-2.423-1.542-3.47-.44-1.046-.826-1.927-1.101-2.588h-.606c-.275.716-.66 1.542-1.1 2.589s-.992 2.147-1.543 3.47c-.55 1.32-1.211 2.698-1.927 4.185s-1.431 3.028-2.202 4.68l-1.983 4.13c-.495 1.102-.99 2.094-1.431 2.975-.44.88-.771 1.652-1.157 2.313-.385.66-.715 1.377-1.046 2.037-.605 1.212-1.376 1.928-2.312 2.203l.055.166c.385-.056.825-.056 1.321-.11.44-.056.881-.056 1.322-.056.44 0 .936 0 1.486.055.496 0 .991.055 1.432.11l.055-.165-.496-.22a1.3 1.3 0 0 1-.495-.33c-.33-.33-.44-.882-.165-1.267.165-.496.385-.936.55-1.432l.606-1.542.66-1.707c.056-.17.072-.22.061-.22.017-.034.028-.066.05-.11H48.46c.716 1.541.495 1.046.991 2.037.496 1.046.936 1.983 1.322 2.974.11.22.165.495.11.77-.055.166-.11.331-.276.497l-.495.33c-.165.11-.33.165-.496.22l.055.166c.166-.056.496-.056.881-.11.44 0 .881-.056 1.322-.056h4.185c.385 0 .77 0 1.1.055s.607.055.827.11v-.11l.055-.165c-.55-.11-.991-.385-1.377-.77zm-21.64-7.325 2.258-5.287c.605-1.376 1.1-2.423 1.486-3.304l.936-2.203.771-1.762c.276-.55.551-1.157.881-1.872.33.715.606 1.266.771 1.707l.661 1.487c.22.55.55 1.266.936 2.147.386.882.991 2.093 1.707 3.69l2.423 5.342zM89.147 1.033a17.8 17.8 0 0 0-11.949 0c-3.744 1.376-6.772 4.13-8.424 7.765a15.37 15.37 0 0 0 0 12.28 15.1 15.1 0 0 0 3.414 4.682 14.8 14.8 0 0 0 4.955 3.028 17.14 17.14 0 0 0 10.204.54c-.122.044-.237.088-.347.121.715-.165 1.376-.385 2.037-.606a14.8 14.8 0 0 0 4.956-3.028l.05-.05h.005a15.1 15.1 0 0 0 3.414-4.681 13.85 13.85 0 0 0 1.266-6.113c0-2.093-.44-4.185-1.156-6.168-1.652-3.635-4.68-6.443-8.425-7.765zm-8.98 26.682a9 9 0 0 1-1.207-.468c-1.321-.606-2.477-1.488-3.469-2.589-1.046-1.212-1.817-2.588-2.367-4.13-.606-1.762-.881-3.635-.881-5.507-.055-1.873.275-3.745.88-5.507.496-1.542 1.322-2.92 2.368-4.13.936-1.102 2.148-1.983 3.47-2.59a10.5 10.5 0 0 1 1.717-.605 9.97 9.97 0 0 1 6.542.606c1.321.606 2.533 1.487 3.469 2.588 1.046 1.212 1.872 2.589 2.368 4.13.605 1.763.88 3.635.88 5.508 0 1.872-.275 3.744-.88 5.507-.496 1.542-1.322 2.919-2.368 4.13-.991 1.101-2.148 1.983-3.47 2.589a9.95 9.95 0 0 1-7.053.468M25.384 16.177a2.203 2.203 0 1 0 0-4.405 2.203 2.203 0 0 0 0 4.405M58.642 16.177a2.203 2.203 0 1 0 0-4.405 2.203 2.203 0 0 0 0 4.405M16.904 9.844l-.22-.11s-.016.044-.022.071l-.033-.016-.275.606c-.11.165-.165.33-.33.44-.072.066-.155.121-.237.182-.33.204-.678.341-1.085.424-.936.22-1.927.33-2.918.385-1.267.11-3.8.11-5.892.166V4.998c0-.771 0-1.707.055-2.754.385 0 .826-.055 1.211-.055.386.055.826.055 1.212.11.605.055 1.266.165 1.872.276q1.652.33 3.138.99a10 10 0 0 1 2.754 1.818l.22-.275c-.055-.22-.165-.496-.33-.881-.11-.386-.276-.771-.441-1.212-.11-.44-.276-.826-.386-1.211a2.2 2.2 0 0 1-.165-.826H2.863L1.817.922c-.385 0-.716 0-1.046-.055C.55.812.275.812.055.757L0 .977c.33.166.606.33.881.551.33.22.44.661.496 1.267 0 .66.055 1.377.055 2.093v20.1c0 .771 0 1.488-.055 2.148-.055.606-.22 1.047-.496 1.267-.275.22-.55.386-.881.55l.055.166s3.992-.314 6.949.033l.264.132.055-.165q-.048-.025-.088-.05l.033-.17a4.8 4.8 0 0 1-.88-.551c-.276-.22-.386-.661-.441-1.267 0-.66-.055-1.376-.055-2.093V13.313c2.092 0 4.625.055 5.892.11.99.056 1.927.166 2.918.331.55.055 1.046.275 1.432.66.275.331.44.717.55 1.157l.22-.11c-.055-.44-.055-.88-.11-1.322-.055-.44-.055-.936-.055-1.486 0-.551 0-1.047.055-1.432 0-.386.055-.881.11-1.377M135.367 16.304c-.578-.661-1.222-1.256-1.949-1.724-1.101-.77-2.313-1.377-3.579-1.927-1.322-.496-2.478-1.047-3.579-1.598-.992-.495-1.928-1.1-2.754-1.872-.715-.716-1.156-1.762-1.101-2.753 0-1.157.496-2.258 1.377-3.03.11-.11.237-.209.363-.297.094-.071.193-.132.292-.193a3 3 0 0 1 .154-.093c.793-.446 1.79-.683 2.99-.683.771 0 1.487.11 2.258.275s1.486.496 2.202.881a9 9 0 0 1 1.927 1.598c.661.715 1.157 1.542 1.542 2.478l.22-.165-.44-4.571c-.881-.771-1.927-1.377-3.084-1.653-1.431-.385-2.863-.605-4.35-.55-1.211 0-2.367.165-3.524.495a7.8 7.8 0 0 0-2.863 1.432 6.8 6.8 0 0 0-1.927 2.423c-.496 1.047-.771 2.203-.716 3.415a5.63 5.63 0 0 0 1.101 3.58 11.6 11.6 0 0 0 2.754 2.423 21.3 21.3 0 0 0 3.524 1.817 30 30 0 0 1 3.524 1.707c.991.55 1.927 1.267 2.753 2.093a4.06 4.06 0 0 1 1.101 3.029c0 1.817-.551 3.249-1.707 4.185s-2.643 1.432-4.405 1.432c-.826 0-1.597-.11-2.368-.385-.881-.276-1.652-.606-2.422-1.102a11 11 0 0 1-2.258-1.983 12.3 12.3 0 0 1-1.927-3.028l-.331.11.716 5.232q.743.66 1.652 1.156.992.495 2.148.826c.77.22 1.541.386 2.367.55.771.11 1.542.166 2.368.166a15 15 0 0 0 3.854-.496 9.7 9.7 0 0 0 3.194-1.597c1.927-1.432 3.084-3.744 3.028-6.168 0-1.762-.385-3.194-1.101-4.295a44 44 0 0 0-1.024-1.14M243.874 4.117a4.5 4.5 0 0 1 1.102-.661l.11-.055-.165-.386h-.111c-.33.055-.771.11-1.211.11-.441.055-.881.055-1.211.055-.386 0-.826 0-1.322-.055-.551-.055-.936-.11-1.266-.11h-.11l-.056.386.551.275c.165.055.33.165.441.275s.165.276.22.44c0 .221 0 .441-.11.662-.276.606-.496 1.211-.771 1.927s-.551 1.377-.826 2.148a39 39 0 0 1-1.156 2.809c-.441 1.046-.992 2.368-1.707 3.855-.606 1.266-1.047 2.313-1.377 3.084s-.661 1.431-.881 2.037l-.716 1.597c-.209.413-.418.881-.672 1.4l-.044-.078c-.275-.55-.44-.991-.605-1.322-.165-.33-.331-.826-.551-1.321-.22-.496-.496-1.157-.881-1.983s-.881-1.927-1.542-3.414l-.512-1.124.292-.584c.496-1.101.991-2.037 1.377-2.863.385-.826.77-1.542 1.046-2.203.33-.606.605-1.212.881-1.762l.826-1.653c.22-.495.55-.936.991-1.266.33-.276.661-.496 1.101-.661l.11-.055-.055-.386h-.11c-.33.055-.771.11-1.211.11s-.881.056-1.212.056c-.385 0-.826 0-1.376-.055-.551-.056-.936-.11-1.212-.11h-.11l-.055.385.11.055c.11.055.276.11.441.165s.275.165.44.276c.11.11.221.275.221.44 0 .22 0 .44-.111.606l-.605 1.542c-.221.55-.441 1.101-.661 1.707s-.496 1.322-.826 2.038c-.275.716-.606 1.487-.991 2.423-.386-.881-.771-1.707-1.101-2.423l-.936-2.038c-.276-.606-.551-1.211-.771-1.707l-.716-1.542a.834.834 0 0 1 .11-1.046c.11-.11.275-.22.44-.276.166-.055.331-.165.441-.165l.11-.055-.165-.386h-.039l-.071-.165h-.11c-.166 0-.386.055-.771.055-.386 0-.771.055-1.157.055l-1.211.055h-1.652l-.991-.055c-.33 0-.661-.055-.991-.055s-.551-.055-.716-.055l.452.198c-.138-.016-.248-.033-.342-.033h-.11l-.165.441.11.055c.441.165.881.44 1.211.771.441.44.771.936 1.047 1.487.33.606.66 1.212.936 1.817.275.606.605 1.212.991 1.983l1.266 2.643a199 199 0 0 0 1.817 3.745l.826 1.817-1.101 1.763c-.275.55-.496 1.101-.661 1.542-.165.44-.385.936-.605 1.322-.149.352-.347.71-.551 1.1-.248-.5-.452-.902-.551-1.21l-.605-1.377c-.221-.496-.496-1.157-.881-1.983a215 215 0 0 1-1.542-3.414l-1.762-3.855c-.496-1.102-.936-2.038-1.322-2.864l-.991-2.148c-.33-.66-.605-1.267-.826-1.872-.11-.166-.165-.386-.11-.606a1.7 1.7 0 0 1 .22-.44c.111-.11.221-.22.386-.276.165-.055.33-.165.44-.165l.11-.055-.055-.386h-.22c-.165 0-.44.055-.771.055-.33 0-.771.055-1.156.055l-1.211.055h-1.542l-.991-.055c-.331 0-.716-.055-.991-.055-.276 0-.551-.055-.716-.055h.016-.237l-.055.386.11.055c.441.165.882.44 1.212.77.44.441.771.937 1.046 1.433.33.66.606 1.211.936 1.817q.496.826.991 1.983c.386.77.771 1.597 1.267 2.643s1.101 2.258 1.762 3.745c.716 1.487 1.376 2.919 2.037 4.295a101 101 0 0 1 1.762 3.855c.551 1.157.991 2.258 1.432 3.194.44.937.771 1.763.991 2.369l.055.055h.716l1.872-4.351c.771-1.762 1.652-3.745 2.753-5.948 1.046 2.203 1.927 4.24 2.698 5.948.826 1.817 1.432 3.25 1.872 4.296l.055.055h.716l.055-.056c.276-.605.606-1.376.991-2.368.441-.936.881-1.982 1.432-3.194s1.101-2.478 1.762-3.855 1.322-2.808 2.037-4.295a630 630 0 0 0 1.817-3.8c.496-1.046.937-1.928 1.322-2.699s.716-1.487 1.046-2.092c.331-.606.661-1.212.991-1.873.11-.44.441-.936.881-1.321M295.138 28.458a1.58 1.58 0 0 1-1.542-.33 8.2 8.2 0 0 1-1.597-1.763 26 26 0 0 1-1.651-2.588c-.551-.991-1.157-1.928-1.762-2.864a30 30 0 0 0-1.928-2.478c-.517-.567-1.084-1.035-1.74-1.36a14 14 0 0 0 2.456-.733c.881-.33 1.762-.826 2.478-1.487.716-.605 1.266-1.321 1.707-2.147.011-.017.016-.039.027-.06a.3.3 0 0 0 .028-.05 6.4 6.4 0 0 0 .661-2.864c0-.881-.221-1.762-.606-2.533-.44-.827-1.101-1.542-1.872-2.093a10.4 10.4 0 0 0-3.194-1.432 16.5 16.5 0 0 0-4.625-.496h-3.304l-2.037.055c-.386 0-.771 0-1.212.055h-.11l.039.11h-.094l.099.028.066.193h.111c.275 0 .495.11.715.33.221.166.331.551.331 1.102 0 .606.055 1.266.055 1.927v18.504c0 .716-.055 1.322-.055 1.983 0 .55-.165.88-.386 1.101-.22.165-.495.386-.771.496l-.11.055.11.33h.111c.22-.055.44-.055.66-.055.331 0 .661-.055.991-.055h3.304c.331 0 .661.055.936.055.276.055.496.055.606.055h.11l.11-.385-.11-.055a2.3 2.3 0 0 1-.771-.496c-.22-.165-.33-.55-.385-1.101 0-.551-.055-1.102-.055-1.597v-8.536h.936c.661.165 1.266.55 1.597 1.156.495.716.881 1.542 1.211 2.368.385.936.716 1.872 1.101 2.919.331.991.826 1.927 1.377 2.864a7.8 7.8 0 0 0 2.037 2.202c.936.606 2.038.937 3.139.882.495 0 1.046-.056 1.542-.11.55-.056 1.046-.22 1.486-.551l.055-.055-.055-.44zm-14.261-12.942V9.073c0-1.762 0-3.194.055-4.35.143-.017.281-.034.424-.045.666.017 1.321.077 1.943.21.771.11 1.542.385 2.258.77.661.386 1.211.882 1.597 1.543a4.74 4.74 0 0 1 .606 2.588c.11.991-.111 1.983-.551 2.864-.385.77-.936 1.376-1.652 1.872-.716.44-1.487.771-2.313.881-.754.16-1.558.165-2.367.11M322.78 24.603l-.11.11a10.5 10.5 0 0 1-3.469 1.817c-1.432.441-2.919.771-4.405.937q-2.313.33-4.626.33c-1.393 0-2.681 0-3.821-.05.374-.54.749-1.178 1.178-1.822l1.597-2.423c.606-.937 1.267-1.928 2.037-3.14.771-1.156 1.652-2.533 2.643-4.075a2085 2085 0 0 0 4.956-7.6c1.322-1.982 2.423-3.634 3.304-4.9l.055-.056-.22-.496h-.028l-.027-.055h-19.162v.11c-.055.22-.165.496-.276.827l-.44 1.211c-.165.44-.33.826-.496 1.212-.165.385-.33.716-.44.936l-.055.11.44.165.055-.055c.826-.826 1.872-1.432 2.974-1.817 1.266-.44 2.533-.771 3.854-.936a27 27 0 0 1 4.185-.33h3.744c-.385.605-.771 1.21-1.156 1.872l-1.597 2.423c-.606.936-1.266 1.982-2.037 3.139s-1.652 2.533-2.643 4.02c-2.038 3.084-3.69 5.617-5.011 7.655s-2.478 3.69-3.359 4.956l-.055.055.275.386h20.759v-.11c.055-.33.165-.606.275-.936.111-.386.276-.716.386-1.157.165-.386.275-.771.44-1.157.111-.275.276-.55.441-.826l.055-.055zM269.847 28.629a4 4 0 0 1-.534-.446 6 6 0 0 1-.853-1.063 4 4 0 0 1-.193-.37c-.33-.605-.606-1.21-.936-1.817-.33-.55-.606-1.211-.991-1.982l-.292-.59a64 64 0 0 1-.622-1.305c-.11-.236-.231-.484-.352-.743-.496-.991-1.102-2.258-1.818-3.745-.715-1.487-1.376-2.919-2.037-4.295-.33-.689-.633-1.36-.919-2.005-.292-.639-.568-1.245-.843-1.795-.551-1.157-.991-2.258-1.432-3.194a24 24 0 0 1-.308-.672c-.193-.43-.358-.82-.495-1.179-.067-.182-.133-.352-.188-.517l-.055-.056h-.716l-.055.056c-.275.605-.605 1.431-.991 2.368-.44.936-.881 1.982-1.431 3.194-.551 1.156-1.102 2.423-1.762 3.8-.661 1.376-1.322 2.808-2.038 4.295l-1.817 3.8c-.495 1.046-.936 1.983-1.321 2.754-.386.77-.771 1.487-1.047 2.092-.33.606-.605 1.212-.936 1.873-.55 1.046-1.211 1.707-2.037 1.927l-.11.055.11.386h.11c.386-.055.771-.11 1.212-.11s.881-.055 1.211-.055.881 0 1.377.055c.44 0 .881.055 1.266.11h.11l.11-.386-.11-.055c-.11-.055-.275-.11-.495-.22a1.2 1.2 0 0 1-.441-.275.834.834 0 0 1-.11-1.047c.165-.44.385-.88.551-1.321l.44-1.157.716-1.872v-.055c0-.055.055-.11.055-.166h12.775l.55 1.102c.11.165.165.275.331.716.44.88.825 1.817 1.211 2.698.11.22.11.44.11.661a.9.9 0 0 1-.22.386c-.11.11-.276.22-.441.275s-.33.165-.44.22l-.11.055.11.386h.11c.165 0 .44-.055.771-.055.385 0 .771-.055 1.211-.055h3.855c.33 0 .66.055.991.055s.55.055.716.055h.11l.11-.386-.11-.055a3 3 0 0 1-.623-.325zm-20.301-7.22 2.037-4.681a80 80 0 0 0 1.377-3.029l1.541-3.635c.166-.44.386-.88.661-1.487.275.551.496.992.606 1.322l.606 1.377c.22.495.495 1.156.881 1.982.33.827.881 1.928 1.541 3.415l2.148 4.736zM151.093 7.531a10 10 0 0 1 .683-.688 9.3 9.3 0 0 1 2.566-1.68c1.266-.55 2.588-.881 3.964-.881 2.478 0 4.626.606 6.277 1.762 1.707 1.212 3.029 2.809 3.855 4.681l.055.11.44-.165-.165-4.296-.055-.055c-.605-.66-1.321-1.211-2.092-1.707a15.2 15.2 0 0 0-2.533-1.211c-.936-.33-1.872-.606-2.808-.771a17.4 17.4 0 0 0-2.919-.22q-2.973 0-5.781.99a15.1 15.1 0 0 0-4.846 2.754 14.4 14.4 0 0 0-3.359 4.35 13.6 13.6 0 0 0 0 11.346c.771 1.652 1.928 3.138 3.304 4.35a15.1 15.1 0 0 0 4.846 2.754q2.808.99 5.781.99a16.7 16.7 0 0 0 5.727-.99c.881-.33 1.762-.716 2.533-1.212.771-.495 1.486-1.046 2.092-1.707l.05-.05h.115l.11-2.649-.181-.022-.314-.088-.055.055a10.47 10.47 0 0 1-3.965 3.635c-1.541.771-3.579 1.157-6.057 1.157-1.376 0-2.753-.276-3.964-.826-1.267-.551-2.368-1.377-3.304-2.424a11.1 11.1 0 0 1-2.258-3.8 14.1 14.1 0 0 1-.864-4.846c0-1.641.292-3.288.864-4.846.496-1.377 1.267-2.644 2.258-3.8M202.291 29.003l.011-.05-.11-.054a2.3 2.3 0 0 1-.727-.463c-.171-.193-.27-.54-.32-1.024 0-.606-.055-1.267-.055-1.983V7.036c0-.661.055-1.322.055-1.928 0-.55.166-.936.386-1.102a2.3 2.3 0 0 1 .771-.495l.11-.055-.017-.05h.017l-.11-.336h-.11c-.111 0-.331.055-.661.055-.331 0-.606.055-.936.055l-.936.055h-1.377c-.33 0-.606 0-.936-.055s-.661-.055-.936-.055c-.22 0-.441-.055-.661-.11l-.11-.055-.11.386.11.055c.275.165.551.33.771.495.22.22.385.551.385 1.102.055.66.055 1.211.055 1.817v6.113h-15.307V6.87c0-.606.055-1.211.055-1.817s.165-.936.385-1.102a2.3 2.3 0 0 1 .771-.495l.11-.055-.11-.33h-.038l-.017-.056h-.11c-.11 0-.33.055-.606.055s-.605.055-.936.055l-.936.055h-1.376c-.331 0-.606 0-.936-.055s-.661-.055-.936-.055c-.221 0-.441-.055-.661-.11l-.11-.055-.11.386.11.055c.275.165.55.33.771.495.22.22.385.55.385 1.102 0 .605.055 1.266.055 1.927V25.32c0 .66-.055 1.322-.055 1.983 0 .55-.165.88-.385 1.101-.221.165-.496.386-.771.496l-.11.055.11.33h.11c.165 0 .385-.055.661-.055.33 0 .605-.055.936-.055h2.312l1.872.11c.221 0 .386 0 .606.055h.11l.039-.127.126.072.111-.385-.177.088.011-.033-.11-.055a2.3 2.3 0 0 1-.771-.496.6.6 0 0 1-.132-.154c-.099-.204-.159-.485-.198-.837 0-.606-.055-1.267-.055-1.928V14.69l-.055-.06v-.05h15.307v10.794c0 .66-.055 1.212-.055 1.928 0 .55-.165.88-.385 1.101-.22.165-.496.386-.771.496l-.11.055.11.33h.11c.165 0 .386-.055.661-.055.33 0 .606-.055.936-.055h2.313l1.872.11c.22 0 .385 0 .605.055h.111l.016-.066.149.066.11-.385-.165.055s-.011 0-.011-.006"/></svg>