<svg xmlns="http://www.w3.org/2000/svg" width="177" height="60" fill="none" viewBox="0 0 177 60"><path fill="#fff" fill-opacity=".45" d="M20.732.197c-.69 0-1.065-.118-1.558-.177C14.754 11.238 5.543 31.56 0 43.647c.809-.118 1.558-.375 2.742-.375s1.815.237 2.545.375c2.051-7.92 4.556-13.47 5.799-16.333h15.76c1.56 3.436 4.104 8.848 6.293 16.333 1.184-.178 2.367-.375 3.985-.375 1.558 0 2.604.178 3.669.375C40.655 43.41 26.906 13.094 22.113 0c-.513.138-.829.197-1.381.197m-8.403 24.016L18.878 8.75l6.726 15.464zM59.552 13.035c-10.218 0-14.952 7.228-14.952 15.84 0 9.618 5.8 15.602 15.268 15.602 5.05 0 8.857-1.442 11.579-4.069.06-.987.06-1.995.434-3.733l-.75-.177c-.947 1.303-3.807 5.036-9.902 5.036-1.795 0-5.859-.178-8.719-4.858-1.676-2.864-1.676-6.42-1.676-8.157h22.349c.06-3.377.237-15.484-13.63-15.484m-8.68 12.857c.553-6.24 3.177-10.349 8.601-10.349 7.477 0 7.477 8.295 7.477 10.35zM90.502 25.635c-2.17-.553-5.858-1.876-5.858-5.49 0-2.686 1.992-4.68 5.78-4.68 1.005 0 2.741.137 4.043 1.066 1.815 1.244 2.19 2.804 2.426 3.732h.809c.197-2.113.631-3.614 1.243-5.233-1.44-.731-3.926-2.054-8.226-2.054-8.6 0-10.79 5.747-10.79 9.282 0 5.49 4.419 7.426 7.101 8.295 6.53 2.113 8.66 2.805 8.66 6.36 0 3.554-3.058 5.115-6.293 5.115-1.36 0-2.998-.257-4.537-1.185-2.307-1.383-2.919-3.062-3.373-4.128l-.75.178c-.117.81-.61 3.495-1.44 4.996.691.494 4.163 2.607 9.213 2.607 8.66 0 11.973-5.293 11.973-10.032.04-6.202-4.438-7.387-9.98-8.829M122.636 12.976c-9.351 0-15.84 6.043-15.84 15.76 0 12.778 9.212 15.78 15.84 15.78 9.448 0 16.313-6.24 16.313-16.155 0-7.584-4.478-15.385-16.313-15.385m.059 29.052c-5.741 0-9.528-4.8-9.528-13.47 0-1.876 0-13.094 9.843-13.094 8.108 0 9.587 8.295 9.587 13.154 0 8.235-3.925 13.41-9.902 13.41M163.172 12.916c-6.904 0-9.587 4.365-10.573 5.985 0-1.304 0-2.252.257-5.669-.868.178-1.934.376-3.058.376-1.184 0-2.19-.178-3.057-.376.197 9.046.315 16.709.315 22.397 0 8.117-.177 16.274-.69 24.371.986-.257 1.795-.375 3.353-.375 1.499 0 2.308.118 3.235.375-.375-5.727-.315-11.415-.315-21.192 1.006 2.568 4.3 5.787 10.158 5.787 8.147 0 14.203-6.182 14.203-16.017.02-11.12-7.594-15.662-13.828-15.662m-1.479 28.5c-2.861 0-4.991-1.126-6.589-3.062-1.321-1.54-2.564-3.614-2.564-9.104 0-6.182 1.302-8.414 2.564-9.974 1.44-1.817 3.61-3.24 6.983-3.24 4.044 0 8.522 3.418 8.522 12.838-.02 1.995-.02 12.541-8.916 12.541M68.41 5.254H51.188v1.955h17.22z"/></svg>