<svg xmlns="http://www.w3.org/2000/svg" width="168" height="34" fill="none" viewBox="0 0 168 34"><path fill="#fff" fill-opacity=".45" d="M0 33.416V1.635l.293-.293h17.542l4.395 4.362.144 8.72-3.27 2.955 3.075 2.956.034 8.702-4.187 4.379zM15.98 7.563H6.237v6.805h9.745zm0 12.831H6.237v6.996h9.745zm90.625 13.022h-6.236L96.47 21.169h-5.65v12.247h-6.237V1.537h17.64l4.378 4.379-.034 10.646-4.056 4.32 4.094 12.53zm-6.236-26.048h-9.257l-.292.292v7.483h9.549zM78.737 33.416H72.6l-4.29-12.247h-5.357v12.247h-6.236V1.537h17.64l4.381 4.574-.033 10.256-4.239 4.501 4.28 12.548zm-6.236-18.273V7.66l-.293-.292h-9.256v7.775zM168 11.45h-6.236V7.563h-9.355v5.831l12.38 2.91 3.169 3.641V29l-4.137 4.23-.585.195-12.638-.05-4.425-4.138v-5.734h6.236v3.888h9.355v-5.831l-11.743-2.575c-.522-.208-3.742-3.587-3.848-4.133l.034-9.092 4.238-4.133 13.321-.046 4.23 4.137v5.734zm-51.26-9.913 6.236 12.247 6.041-12.247h6.822l-9.94 19.34v12.539h-6.236v-12.73l-9.745-19.149zM28.453 17.671V9.604L39.297 0c.623.457 4.628 3.748 4.543 4.146l-15.387 13.53zm0 13.022V22.63l10.712-9.35.776.224 3.895 3.515zm22.022.194L39.95 21.462l4.548-3.769a78 78 0 0 1 5.981 5.32v7.871zm0-13.216L39.955 8.44l4.58-3.951 5.94 5.31zm94.137-16.324-3.899 7.19h-4.484l3.801-7.19zM40.34 29.139h3.118l-2.35 1.884.79 2.977-2.436-1.69L36.934 34l.89-2.985-2.55-1.876h3.314l.878-2.918z"/></svg>