<?xml version="1.0" encoding="UTF-8"?>
<svg id="Guides_and_Backgrounds" data-name="Guides and Backgrounds" xmlns="http://www.w3.org/2000/svg" viewBox="0 0 3562.42 444.94">
  <defs>
    <style>
      .cls-1 {
        fill: #1227be;
      }
    </style>
  </defs>
  <path class="cls-1" d="M50,228.58V73.24h47.23v155.34c0,33.21,17.71,46.86,40.97,46.86s40.95-14.02,40.95-46.86V73.24h47.23v155.34c0,32.84,17.71,46.86,40.95,46.86s40.95-13.65,40.95-46.86V73.24h47.23v155.34c0,61.99-36.52,90.77-84.12,90.77-30.62,0-54.61-12.91-68.63-36.9-14.02,23.98-38.01,36.9-68.63,36.9-47.6,0-84.14-28.78-84.14-90.77Z"/>
  <path class="cls-1" d="M385.44,223.42c0-55.35,40.58-95.94,98.15-95.94s97.41,40.59,97.41,95.94v15.5h-149.44c5.9,26.57,26.2,40.59,52.03,40.59,19.56,0,33.95-5.54,43.17-17.35h46.86c-13.65,34.69-46.86,57.19-90.03,57.19-57.56,0-98.15-40.59-98.15-95.93ZM534.5,203.86c-7.01-24.35-26.93-36.52-50.92-36.52s-43.91,12.54-50.92,36.52h101.84Z"/>
  <path class="cls-1" d="M714.59,73.24h85.6c84.5,0,128.78,48.34,128.78,120.66s-44.28,120.65-128.78,120.65h-85.6V73.24ZM800.19,271.02c55.72,0,80.81-30.26,80.81-77.11s-25.09-76.75-80.81-76.75h-38.37v153.86h38.37Z"/>
  <path class="cls-1" d="M952.23,223.42c0-55.35,40.58-95.94,98.15-95.94s97.41,40.59,97.41,95.94v15.5h-149.44c5.9,26.57,26.2,40.59,52.03,40.59,19.56,0,33.95-5.54,43.17-17.35h46.86c-13.65,34.69-46.86,57.19-90.03,57.19-57.56,0-98.15-40.59-98.15-95.93ZM1101.3,203.86c-7.01-24.35-26.93-36.52-50.92-36.52s-43.91,12.54-50.92,36.52h101.84Z"/>
  <path class="cls-1" d="M1182.86,52.58h43.91v261.98h-43.91V52.58Z"/>
  <path class="cls-1" d="M1268.47,79.52c0-16.97,12.18-29.52,29.16-29.52s29.15,12.54,29.15,29.52-12.18,29.15-29.15,29.15-29.16-12.17-29.16-29.15ZM1275.49,132.28h43.91v182.28h-43.91v-182.28Z"/>
  <path class="cls-1" d="M1350.03,132.28h47.96l50.55,142.06,50.56-142.06h46.86l-71.59,182.28h-52.76l-71.58-182.28Z"/>
  <path class="cls-1" d="M1554.45,223.42c0-55.35,40.59-95.94,98.15-95.94s97.42,40.59,97.42,95.94v15.5h-149.44c5.9,26.57,26.2,40.59,52.02,40.59,19.56,0,33.95-5.54,43.17-17.35h46.87c-13.65,34.69-46.87,57.19-90.04,57.19-57.55,0-98.15-40.59-98.15-95.93ZM1703.53,203.86c-7.02-24.35-26.94-36.52-50.93-36.52s-43.9,12.54-50.92,36.52h101.85Z"/>
  <path class="cls-1" d="M1778.81,208.66c0-54.98,32.48-81.18,80.07-81.18s79.7,26.2,79.7,81.91v1.11h-43.54v-1.84c0-29.52-14.76-40.22-36.16-40.22s-36.15,10.71-36.15,40.22v105.9h-43.91v-105.9Z"/>
  <path class="cls-1" d="M2067.01,73.24h47.23v197.77h126.19v43.54h-173.42V73.24Z"/>
  <path class="cls-1" d="M2260.38,225.27c0-57.93,40.58-97.78,98.52-97.78s97.03,38.74,97.03,97.41v89.66h-40.21v-35.79c-11.08,26.94-35.79,40.59-64.57,40.59-44.28,0-90.77-31.73-90.77-94.09ZM2412.03,223.42c0-32.1-21.4-54.98-53.5-54.98s-53.88,22.88-53.88,54.98,21.77,54.98,53.88,54.98,53.5-22.88,53.5-54.98Z"/>
  <path class="cls-1" d="M2492.12,227.11v-94.83h43.9v94.83c0,34.69,18.45,51.29,46.13,51.29s46.12-16.6,46.12-51.29v-94.83h43.91v94.83c0,60.88-36.16,92.24-90.03,92.24s-90.03-30.99-90.03-92.24Z"/>
  <path class="cls-1" d="M2708.36,219.73c0-60.88,36.15-92.24,90.03-92.24s90.03,31,90.03,92.24v94.83h-43.91v-94.83c0-34.68-18.44-51.29-46.12-51.29s-46.13,16.61-46.13,51.29v94.83h-43.9v-94.83Z"/>
  <path class="cls-1" d="M2917.22,221.57c0-62.35,46.5-94.09,90.77-94.09,26.2,0,47.97,11.07,60.88,31.36V52.58h43.91v169.36c0,59.04-39.85,97.41-97.05,97.41s-98.52-39.85-98.52-97.78ZM3068.87,223.42c0-32.1-21.4-54.98-53.5-54.98s-53.86,22.88-53.86,54.98,21.77,54.98,53.86,54.98,53.5-22.88,53.5-54.98Z"/>
  <path class="cls-1" d="M3148.95,208.66c0-54.98,32.48-81.18,80.07-81.18s79.7,26.2,79.7,81.91v1.11h-43.54v-1.84c0-29.52-14.76-40.22-36.16-40.22s-36.15,10.71-36.15,40.22v105.9h-43.91v-105.9Z"/>
  <path class="cls-1" d="M3333.83,334.48h43.9c7.39,16.97,21.77,24.72,43.91,24.72,29.89,0,46.86-14.39,46.86-49.82v-22.88c-11.07,19.93-30.25,30.63-54.24,30.63-42.07,0-81.91-27.3-81.91-92.24v-92.61h43.9v92.61c0,34.69,18.45,51.29,46.13,51.29s46.12-17.34,46.12-51.29v-92.61h43.91v176c0,63.47-40.22,88.93-90.77,88.93-42.43,0-77.48-19.56-87.81-62.73Z"/>
</svg>