<?xml version="1.0" encoding="UTF-8"?>
<svg id="Guides_and_Backgrounds" data-name="Guides and Backgrounds" xmlns="http://www.w3.org/2000/svg" viewBox="0 0 865.22 784.97">
  <defs>
    <style>
      .cls-1 {
        fill: #1227be;
      }
    </style>
  </defs>
  <path class="cls-1" d="M659.06,157.69c-.61-4.85-.91-9.72-.82-14.61.04-1.97.14-3.94.3-5.9.09-1.08.04-2.44.35-3.48-1.21,4.08.14-.67.31-1.63.74-4.07,1.75-8.1,3.03-12.04.62-1.91,1.13-4.58,2.27-6.24-2.1,3.09-.26.62.19-.36.6-1.32,1.24-2.62,1.9-3.91,1.8-3.49,3.82-6.86,6.05-10.09.6-.87,1.23-1.72,1.84-2.58,2.11-2.97-2.18,2.54.18-.21,1.36-1.58,2.68-3.17,4.1-4.69,2.8-2.99,5.82-5.69,8.95-8.31,2.7-2.26-2.81,1.94.08-.04.55-.37,1.08-.77,1.62-1.15,1.89-1.31,3.83-2.54,5.83-3.68,1.69-.96,3.41-1.86,5.16-2.69.39-.18,3.29-1.24.8-.4s.47-.17.83-.3c3.81-1.44,7.75-2.55,11.76-3.27.52-.09,1.31-.12,1.83-.3-3.66,1.27-1.99.25-.4.12,1.81-.16,3.63-.23,5.45-.21s3.59.11,5.38.28c.46.04,3.49.31.65.05s.99.21,1.54.32c3.61.71,7.16,1.73,10.61,3.01.58.22,1.16.45,1.74.67,3.15,1.18-3.24-1.56-.21-.07,1.99.98,3.98,1.93,5.91,3.02.6.34,8.99,5.71,8.9,5.81-.09.1-2.8-2.26,0,.02.76.63,1.52,1.27,2.26,1.92,1.75,1.54,3.44,3.14,5.07,4.81,1.17,1.2,2.32,2.44,3.42,3.71.67.77,1.3,1.56,1.97,2.33,2.33,2.7-1.97-2.78.12.12,2.43,3.38,4.73,6.81,6.75,10.45,1.02,1.84,1.99,3.72,2.88,5.63.36.77,2.13,3.9.18.24.41.77.68,1.67.99,2.49,1.62,4.24,2.93,8.6,3.91,13.04.44,2,.76,4.01,1.13,6.03.43,2.35-.35-3.89-.03-.16.1,1.14.23,2.27.31,3.41.34,4.67.34,9.37,0,14.04-.16,2.17-.4,4.32-.65,6.48-.19,1.66-1.24,2.94.07-.44-.33.84-.32,2.08-.47,2.97-.79,4.59-1.84,9.14-3.17,13.61-.77,2.56-1.62,5.1-2.57,7.6-.09.25-1.89,4.49-.62,1.61-.4.9-.81,1.79-1.23,2.68-2.37,5-5.13,9.81-8.28,14.35-.65.94-1.33,1.86-2.01,2.79-.58.8-1.06,2.22.34-.43-.94,1.79-2.91,3.5-4.27,4.99-2.84,3.11-5.87,6.04-9.05,8.81-1.54,1.35-3.14,2.63-4.72,3.93-2.75,2.27,2.75-2.03-.1.09-.81.6-1.61,1.21-2.42,1.8-3.21,2.35-6.49,4.61-9.78,6.85-6.49,4.4-13.07,8.68-19.33,13.42-15.3,11.56-28.55,25.25-36.35,43.04-8.73,19.9-11.15,41.51-8.95,63.06l11.25-14.78c-48.2,18.89-96.41,37.78-144.61,56.68-48.2,18.89-96.41,37.78-144.61,56.68-48.2,18.89-96.41,37.78-144.61,56.68-48.2,18.89-96.41,37.78-144.61,56.68-3.93,1.54-8.22,2.77-11.78,5.03-2.28,1.44-4.36,3.29-6.44,5.02-4.05,3.37-7.81,7.1-11.24,11.1-12.11,14.13-20.69,30.72-23.18,49.3-2.75,20.45,1.87,41.52,12.83,59.03s28.12,31.54,47.76,39.74c2.3.96,4.62,1.85,6.98,2.63,3.87,1.27,7.9,1.08,11.91,1.08h19.32c12.88,0,25.76,0,38.64,0h581.98c8.02,0,15.69-7.05,15.32-15.32s-6.73-15.32-15.32-15.32H129.48c-1.04,0-5.78-.77-2.44.2-2.14-.62-4.49-1.36-6.48-2.37,3.57,1.82.17.02-.5-.29-1.02-.48-2.03-.98-3.03-1.5-4.08-2.13-8.8-4.54-12.18-7.71,2.91,2.72.29.17-.32-.33-.83-.7-1.65-1.42-2.46-2.15-1.6-1.46-3.14-2.97-4.63-4.55-1.23-1.31-3.57-3.18-4.23-4.86l1.08,1.42c-.43-.57-.85-1.14-1.27-1.71-.83-1.15-1.63-2.32-2.4-3.51-2.11-3.28-3.87-6.7-5.56-10.2-1.59-3.29,1.13,3.21-.08-.22-.35-.99-.74-1.97-1.08-2.96-.79-2.32-1.47-4.68-2.03-7.07-.34-1.46-1.63-4.78-1.17-6.21l.28,1.98c-.08-.7-.15-1.4-.21-2.11-.09-1.06-.16-2.12-.2-3.18-.09-2.27-.08-4.55.04-6.81.06-1.14.19-2.27.27-3.41.2-1.74.16-1.49-.12.75.11-.72.23-1.44.36-2.16.76-4.13,1.9-8.19,3.37-12.13,1.27-3.4.33,0-.04-.05.03,0,.7-1.56.81-1.79.94-2.02,1.97-4,3.08-5.93,1.77-3.1,3.78-6.04,5.88-8.92,1.84-2.54-2.33,2.84-.36.48.51-.61,1.01-1.23,1.53-1.84,1.13-1.33,2.3-2.63,3.5-3.9,3.15-3.31,6.58-6.19,10.04-9.15-5.45,4.68-2.68,1.81-1.71,1.35.8-.38,2.56-2.07-1.39.39,2.47-1.54,5.91-2.32,8.63-3.38,3.36-1.32,6.71-2.63,10.07-3.95,11.99-4.7,23.98-9.4,35.97-14.1,23.5-9.21,47-18.42,70.51-27.63,47-18.42,94.01-36.84,141.01-55.27,94.49-37.03,188.98-74.07,283.47-111.1,11.51-4.51,23.02-9.02,34.53-13.53,5.81-2.28,11.97-7.71,11.25-14.78-.57-5.54-.89-11.1-.82-16.67.03-2.48.13-4.97.32-7.44.09-1.17.19-2.34.31-3.51.08-.75.17-1.51.26-2.26-.31,2.23-.33,2.5-.08.8.72-3.96,1.48-7.88,2.6-11.75.5-1.72,1.04-3.42,1.64-5.1.28-.79.57-1.58.88-2.36,1.49-3.84-1.14,2.32-.02-.01,1.42-2.96,2.81-5.89,4.47-8.72,1.1-1.87,2.27-3.69,3.51-5.47.54-.77,1.14-1.94,1.86-2.56-3.09,2.67.11-.06.84-.92,2.61-3.04,5.42-5.9,8.39-8.59,1.46-1.32,2.95-2.6,4.47-3.85.16-.13,2.31-1.8,2.29-1.84-1.82,1.39-2.08,1.6-.78.61.52-.39,1.04-.78,1.57-1.17,13.86-10.25,28.82-18.9,41.76-30.39,16.56-14.7,28.46-34.06,34.79-55.25,5.88-19.67,7.24-41.02,3.04-61.15-3.92-18.76-13.37-36.31-26.26-50.42-12.06-13.21-28.09-23.56-45.42-28.22s-36.29-2.81-53.28,4.58c-41.16,17.92-64.6,65.63-59.16,109.26.53,4.22,1.36,7.71,4.49,10.84,2.66,2.66,7.02,4.66,10.84,4.49,7.45-.33,16.39-6.8,15.32-15.32h0Z"/>
</svg>