<svg xmlns="http://www.w3.org/2000/svg" width="323" height="30" viewBox="0 0 323 30" fill="none"><path d="M56.6599 28.1276C56.324 27.7917 56.0211 27.4337 55.7734 27.0482C55.6577 26.8665 55.5531 26.6792 55.4485 26.4755C55.1181 25.8146 54.7877 25.0987 54.4573 24.4929C54.3748 24.3277 54.2922 24.157 54.2096 23.9863C53.9618 23.4686 53.703 22.9124 53.4111 22.2901C53.0257 21.464 52.5852 20.5278 52.0346 19.4264C51.6216 18.6003 51.1481 17.6531 50.6084 16.5296C50.4267 16.1551 50.245 15.7641 50.0523 15.3511C49.2814 13.7045 48.5711 12.168 47.8553 10.6866C47.8553 10.6866 47.8553 10.6811 47.8553 10.6756C47.1395 9.18864 46.5338 7.75679 45.9281 6.49015C45.3774 5.22352 44.8268 4.06701 44.3863 3.02066C43.9458 1.97431 43.5604 1.09318 43.285 0.432327H42.6794C42.404 1.14825 42.0186 1.97431 41.5781 3.02066C41.1376 4.06701 40.587 5.16845 40.0363 6.49015C39.4857 7.81186 38.8249 9.18864 38.1091 10.6756C37.3933 12.1625 36.6775 13.7045 35.9066 15.3566L33.9243 19.4869C33.4288 20.5884 32.9332 21.5796 32.4927 22.4608C32.0522 23.3419 31.7218 24.1129 31.3364 24.7738C30.9509 25.4346 30.6205 26.1506 30.2902 26.8114C29.6845 28.023 28.9136 28.7389 27.9775 29.0143L28.0326 29.1795C28.418 29.1244 28.8585 29.1244 29.3541 29.0693C29.7946 29.0143 30.2351 29.0143 30.6756 29.0143C31.1161 29.0143 31.6117 29.0143 32.1623 29.0693C32.6579 29.0693 33.1534 29.1244 33.5939 29.1795L33.649 29.0143L33.1534 28.794C32.9883 28.7389 32.8231 28.6288 32.6579 28.4635C32.3275 28.1331 32.2174 27.5824 32.4927 27.1969C32.6579 26.7013 32.8781 26.2607 33.0433 25.7651L33.649 24.2231L34.3098 22.5159C34.3648 22.3451 34.3813 22.2956 34.3703 22.2956C34.3869 22.2625 34.3979 22.2295 34.4199 22.1854H48.461C49.1768 23.7274 48.9565 23.2318 49.4521 24.2231C49.9477 25.2694 50.3882 26.2056 50.7736 27.1969C50.8838 27.4172 50.9388 27.6925 50.8838 27.9679C50.8287 28.1331 50.7736 28.2983 50.6084 28.4635L50.1129 28.794C49.9477 28.9041 49.7825 28.9592 49.6173 29.0143L49.6724 29.1795C49.8376 29.1244 50.1679 29.1244 50.5534 29.0693C50.9939 29.0693 51.4344 29.0143 51.8749 29.0143H56.0597C56.4451 29.0143 56.8306 29.0143 57.1609 29.0693C57.4913 29.1244 57.7666 29.1244 57.9869 29.1795V29.0693L58.042 28.9041C57.4913 28.794 57.0508 28.5186 56.6654 28.1331L56.6599 28.1276ZM35.0201 20.8031L37.2777 15.5163C37.8834 14.1395 38.3789 13.0932 38.7644 12.212L39.7004 10.0092L40.4713 8.24693C40.7466 7.69621 41.022 7.09043 41.3523 6.37451C41.6827 7.09043 41.958 7.64113 42.1232 8.0817L42.784 9.56863C43.0042 10.1193 43.3346 10.8353 43.72 11.7164C44.1055 12.5975 44.7112 13.8091 45.427 15.4062L47.8498 20.7481L35.0201 20.8031Z" fill="white" fill-opacity="0.45"></path><path d="M89.1471 1.03258C85.2927 -0.344195 81.0528 -0.344195 77.1984 1.03258C73.4541 2.40936 70.4256 5.16292 68.7738 8.79762C67.0668 12.7077 67.0668 17.1684 68.7738 21.0785C69.5997 22.8408 70.756 24.4378 72.1877 25.7595C73.6193 27.0812 75.3263 28.1276 77.1433 28.7884C80.4251 30.0055 83.9822 30.1873 87.3465 29.3281C87.2254 29.3722 87.1097 29.4163 86.9996 29.4493C87.7154 29.2841 88.3762 29.0638 89.037 28.8435C90.854 28.1827 92.561 27.1363 93.9926 25.8146C94.0092 25.7981 94.0257 25.7816 94.0422 25.765C94.0422 25.765 94.0422 25.765 94.0477 25.765C95.4793 24.4433 96.6357 22.8463 97.4616 21.084C98.3426 19.1565 98.7831 17.0638 98.7281 14.9711C98.7281 12.8784 98.2876 10.7857 97.5717 8.80312C95.9199 5.16842 92.8914 2.3598 89.1471 1.0381V1.03258ZM80.1663 27.7146C79.7533 27.5824 79.3459 27.4337 78.9604 27.2465C77.6389 26.6407 76.4826 25.7595 75.4914 24.6581C74.4452 23.4465 73.6744 22.0698 73.1237 20.5278C72.518 18.7655 72.2427 16.8931 72.2427 15.0207C72.1877 13.1482 72.518 11.2758 73.1237 9.51354C73.6193 7.97155 74.4452 6.59477 75.4914 5.3832C76.4275 4.28178 77.6389 3.40065 78.9604 2.79487C79.5221 2.53603 80.0947 2.34328 80.6784 2.18908C82.8479 1.65489 85.1495 1.84764 87.2199 2.79487C88.5414 3.40065 89.7528 4.28178 90.6889 5.3832C91.7351 6.59477 92.561 7.97155 93.0566 9.51354C93.6623 11.2758 93.9376 13.1482 93.9376 15.0207C93.9376 16.8931 93.6623 18.7655 93.0566 20.5278C92.561 22.0698 91.7351 23.4465 90.6889 24.6581C89.6977 25.7595 88.5414 26.6407 87.2199 27.2465C84.9898 28.2708 82.4845 28.4195 80.1663 27.7146Z" fill="white" fill-opacity="0.45"></path><path d="M25.3841 16.1772C26.6005 16.1772 27.5866 15.1909 27.5866 13.9743C27.5866 12.7577 26.6005 11.7715 25.3841 11.7715C24.1676 11.7715 23.1815 12.7577 23.1815 13.9743C23.1815 15.1909 24.1676 16.1772 25.3841 16.1772Z" fill="white" fill-opacity="0.45"></path><path d="M58.6422 16.1772C59.8586 16.1772 60.8447 15.1909 60.8447 13.9743C60.8447 12.7577 59.8586 11.7715 58.6422 11.7715C57.4258 11.7715 56.4397 12.7577 56.4397 13.9743C56.4397 15.1909 57.4258 16.1772 58.6422 16.1772Z" fill="white" fill-opacity="0.45"></path><path d="M16.9044 9.84397L16.6841 9.73382C16.6841 9.73382 16.6676 9.77788 16.6621 9.80541L16.629 9.78889L16.3537 10.3947C16.2436 10.5599 16.1885 10.7251 16.0234 10.8352C15.9518 10.9013 15.8692 10.9564 15.7866 11.017C15.4562 11.2207 15.1093 11.3584 14.7018 11.441C13.7658 11.6613 12.7746 11.7715 11.7835 11.8265C10.517 11.9367 7.98415 11.9367 5.89175 11.9917V4.99771C5.89175 4.22672 5.89175 3.29051 5.94681 2.24416C6.33225 2.24416 6.77276 2.18908 7.1582 2.18908C7.54364 2.24415 7.98415 2.24414 8.36959 2.29921C8.97528 2.35429 9.63604 2.46443 10.2417 2.57457C11.343 2.79485 12.3892 3.12529 13.3803 3.56586C14.3715 4.00643 15.3075 4.61221 16.1335 5.3832L16.3537 5.10785C16.2987 4.88756 16.1885 4.6122 16.0234 4.2267C15.9132 3.84121 15.748 3.45572 15.5829 3.01515C15.4727 2.57458 15.3075 2.18907 15.1974 1.80358C15.0873 1.52822 15.0322 1.25287 15.0322 0.97751H2.86328L1.81708 0.922435C1.43164 0.922435 1.10126 0.922449 0.770883 0.867377C0.550631 0.812306 0.275316 0.812299 0.0550633 0.757228L0 0.97751C0.330378 1.14272 0.605694 1.30794 0.881009 1.52822C1.21139 1.74851 1.32151 2.18909 1.37658 2.79487C1.37658 3.45572 1.43164 4.17164 1.43164 4.88756V24.9885C1.43164 25.7595 1.43164 26.4755 1.37658 27.1363C1.32151 27.7421 1.15632 28.1827 0.881009 28.403C0.605694 28.6232 0.330378 28.7885 0 28.9537L0.0550633 29.1189C0.0550633 29.1189 4.04714 28.805 7.00402 29.1519L7.26833 29.2841L7.32339 29.1189C7.29035 29.1024 7.26282 29.0858 7.23529 29.0693L7.26833 28.8986C6.93795 28.7334 6.66263 28.5682 6.38732 28.3479C6.112 28.1276 6.00188 27.687 5.94681 27.0812C5.94681 26.4204 5.89175 25.7045 5.89175 24.9885V13.3134C7.98415 13.3134 10.517 13.3685 11.7835 13.4236C12.7746 13.4787 13.7107 13.5888 14.7018 13.754C15.2525 13.8091 15.748 14.0294 16.1335 14.4149C16.4088 14.7453 16.574 15.1308 16.6841 15.5714L16.9044 15.4612C16.8493 15.0207 16.8493 14.5801 16.7942 14.1395C16.7392 13.6989 16.7392 13.2033 16.7392 12.6526C16.7392 12.1019 16.7392 11.6062 16.7942 11.2207C16.7942 10.8352 16.8493 10.3396 16.9044 9.84397Z" fill="white" fill-opacity="0.45"></path><path d="M135.367 16.3038C134.789 15.643 134.145 15.0482 133.418 14.5801C132.317 13.8091 131.105 13.2033 129.839 12.6526C128.517 12.1569 127.361 11.6062 126.26 11.0555C125.268 10.5599 124.332 9.95409 123.506 9.18309C122.791 8.46717 122.35 7.42082 122.405 6.42954C122.405 5.27304 122.901 4.17162 123.782 3.40062C123.892 3.29048 124.019 3.19137 124.145 3.10325C124.239 3.03166 124.338 2.97108 124.437 2.9105C124.487 2.87746 124.542 2.84441 124.591 2.81687C125.384 2.3708 126.381 2.134 127.581 2.134C128.352 2.134 129.068 2.24414 129.839 2.40935C130.61 2.57456 131.325 2.90499 132.041 3.29049C132.757 3.73106 133.418 4.28177 133.968 4.88755C134.629 5.60348 135.125 6.42954 135.51 7.36575L135.73 7.20055L135.29 2.62963C134.409 1.85864 133.363 1.25285 132.206 0.977497C130.775 0.591999 129.343 0.371715 127.856 0.426786C126.645 0.426786 125.489 0.591996 124.332 0.922423C123.286 1.19778 122.295 1.69342 121.469 2.35428C120.643 3.01513 119.982 3.84119 119.542 4.7774C119.046 5.82376 118.771 6.98026 118.826 8.19182C118.771 9.45846 119.156 10.7251 119.927 11.7714C120.698 12.7077 121.634 13.5337 122.681 14.1946C123.782 14.9105 124.993 15.5163 126.205 16.0119C127.416 16.5076 128.572 17.0583 129.729 17.7191C130.72 18.2698 131.656 18.9858 132.482 19.8118C133.253 20.6379 133.638 21.6843 133.583 22.8408C133.583 24.6581 133.032 26.09 131.876 27.0262C130.72 27.9624 129.233 28.458 127.471 28.458C126.645 28.458 125.874 28.3479 125.103 28.0725C124.222 27.7972 123.451 27.4667 122.681 26.9711C121.855 26.4204 121.084 25.7595 120.423 24.9885C119.652 24.1074 118.991 23.061 118.496 21.9596L118.165 22.0698L118.881 27.3015C119.377 27.7421 119.927 28.1276 120.533 28.458C121.194 28.7884 121.91 29.0638 122.681 29.2841C123.451 29.5044 124.222 29.6696 125.048 29.8348C125.819 29.9449 126.59 30 127.416 30C128.737 30 130.004 29.8348 131.27 29.5044C132.427 29.1739 133.528 28.6232 134.464 27.9073C136.391 26.4754 137.548 24.1625 137.492 21.7393C137.492 19.9771 137.107 18.5452 136.391 17.4438C136.044 17.0417 135.703 16.6673 135.367 16.3038Z" fill="white" fill-opacity="0.45"></path><path d="M243.874 4.11656C244.205 3.8412 244.59 3.62091 244.976 3.45569L245.086 3.40062L244.921 3.01513H244.81C244.48 3.0702 244.039 3.12526 243.599 3.12526C243.158 3.18034 242.718 3.18034 242.388 3.18034C242.002 3.18034 241.562 3.18034 241.066 3.12526C240.515 3.07019 240.13 3.01513 239.8 3.01513H239.69L239.634 3.40062L240.185 3.67598C240.35 3.73105 240.515 3.84119 240.626 3.95133C240.736 4.06147 240.791 4.2267 240.846 4.39191C240.846 4.6122 240.846 4.83247 240.736 5.05275C240.46 5.65854 240.24 6.26432 239.965 6.98025C239.69 7.69617 239.414 8.35704 239.139 9.12803C238.864 9.89903 238.478 10.8352 237.983 11.9366C237.542 12.983 236.991 14.3047 236.276 15.7916C235.67 17.0583 235.229 18.1046 234.899 18.8756C234.569 19.6466 234.238 20.3075 234.018 20.9133L233.302 22.5103C233.093 22.9233 232.884 23.3915 232.63 23.9091L232.586 23.832C232.311 23.2813 232.146 22.8407 231.981 22.5103C231.816 22.1799 231.65 21.6843 231.43 21.1886C231.21 20.693 230.934 20.0321 230.549 19.206C230.164 18.38 229.668 17.2786 229.007 15.7916L228.495 14.6682L228.787 14.0844C229.283 12.983 229.778 12.0468 230.164 11.2207C230.549 10.3947 230.934 9.67874 231.21 9.01788C231.54 8.4121 231.815 7.80631 232.091 7.2556L232.917 5.60347C233.137 5.10783 233.467 4.66726 233.908 4.33684C234.238 4.06148 234.569 3.84119 235.009 3.67598L235.119 3.62092L235.064 3.23541H234.954C234.624 3.29048 234.183 3.34556 233.743 3.34556C233.302 3.34556 232.862 3.40062 232.531 3.40062C232.146 3.40062 231.705 3.40063 231.155 3.34556C230.604 3.29049 230.219 3.23541 229.943 3.23541H229.833L229.778 3.62092L229.888 3.67598C229.998 3.73105 230.164 3.78613 230.329 3.8412C230.494 3.89627 230.604 4.00641 230.769 4.11656C230.879 4.2267 230.99 4.3919 230.99 4.55712C230.99 4.7774 230.99 4.99769 230.879 5.1629L230.274 6.70489C230.053 7.2556 229.833 7.80632 229.613 8.4121C229.393 9.01788 229.117 9.73381 228.787 10.4497C228.512 11.1657 228.181 11.9367 227.796 12.8729C227.41 11.9917 227.025 11.1657 226.695 10.4497L225.759 8.4121C225.483 7.80632 225.208 7.20053 224.988 6.70489L224.272 5.1629C224.052 4.83248 224.107 4.39191 224.382 4.11656C224.492 4.00641 224.657 3.89627 224.822 3.8412C224.988 3.78613 225.153 3.67598 225.263 3.67598L225.373 3.62092L225.208 3.23541H225.169L225.098 3.07021H224.988C224.822 3.07021 224.602 3.12526 224.217 3.12526C223.831 3.12526 223.446 3.18034 223.06 3.18034L221.849 3.23541H220.197L219.206 3.18034C218.876 3.18034 218.545 3.12526 218.215 3.12526C217.885 3.12526 217.664 3.07021 217.499 3.07021L217.951 3.26845C217.813 3.25193 217.703 3.23541 217.609 3.23541H217.499L217.334 3.67598L217.444 3.73105C217.885 3.89626 218.325 4.17162 218.655 4.50204C219.096 4.94261 219.426 5.43826 219.702 5.98897C220.032 6.59475 220.362 7.20053 220.638 7.80631C220.913 8.4121 221.243 9.01788 221.629 9.78888L222.895 12.4323C223.391 13.4787 223.997 14.7453 224.712 16.1771L225.538 17.9945L224.437 19.7568C224.162 20.3075 223.941 20.8582 223.776 21.2987C223.611 21.7393 223.391 22.235 223.171 22.6205C223.022 22.9729 222.824 23.3309 222.62 23.7219C222.372 23.2207 222.168 22.8187 222.069 22.5103L221.464 21.1335C221.243 20.6379 220.968 19.977 220.583 19.151C220.197 18.3249 219.702 17.2235 219.041 15.7366L217.279 11.8816C216.783 10.7802 216.343 9.84395 215.957 9.01788L214.966 6.87011C214.636 6.20926 214.361 5.60348 214.14 4.9977C214.03 4.83248 213.975 4.6122 214.03 4.39191C214.085 4.2267 214.14 4.11655 214.25 3.95133C214.361 3.84119 214.471 3.73105 214.636 3.67598C214.801 3.6209 214.966 3.51077 215.076 3.51077L215.186 3.45569L215.131 3.07021H214.911C214.746 3.07021 214.471 3.12526 214.14 3.12526C213.81 3.12526 213.369 3.18034 212.984 3.18034L211.773 3.23541H210.231L209.24 3.18034C208.909 3.18034 208.524 3.12526 208.249 3.12526C207.973 3.12526 207.698 3.07021 207.533 3.07021H207.549C207.5 3.07021 207.456 3.07021 207.423 3.07021H207.312L207.257 3.45569L207.367 3.51077C207.808 3.67598 208.249 3.95133 208.579 4.28176C209.019 4.72233 209.35 5.21797 209.625 5.71361C209.955 6.37447 210.231 6.92517 210.561 7.53096C210.892 8.08167 211.222 8.74253 211.552 9.51352C211.938 10.2845 212.323 11.1106 212.819 12.1569C213.314 13.2033 213.92 14.4149 214.581 15.9018C215.297 17.3887 215.957 18.8205 216.618 20.1973C217.279 21.5741 217.885 22.8958 218.38 24.0523C218.931 25.2088 219.371 26.3102 219.812 27.2464C220.252 28.1826 220.583 29.0087 220.803 29.6145L220.858 29.6696H221.574L223.446 25.3189C224.217 23.5567 225.098 21.5741 226.199 19.3713C227.245 21.5741 228.126 23.6117 228.897 25.3189C229.723 27.1363 230.329 28.5681 230.769 29.6145L230.824 29.6696H231.54L231.595 29.6145C231.871 29.0087 232.201 28.2377 232.586 27.2464C233.027 26.3102 233.467 25.2639 234.018 24.0523C234.569 22.8407 235.119 21.5741 235.78 20.1973C236.441 18.8205 237.102 17.3887 237.817 15.9018C238.533 14.4149 239.139 13.1482 239.634 12.1019C240.13 11.0555 240.571 10.1744 240.956 9.40339C241.341 8.63239 241.672 7.91646 242.002 7.31068C242.333 6.70489 242.663 6.09911 242.993 5.43826C243.103 4.99769 243.434 4.50205 243.874 4.11656Z" fill="white" fill-opacity="0.45"></path><path d="M295.138 28.458C294.587 28.6232 294.037 28.5131 293.596 28.1276C292.991 27.6319 292.44 27.0262 291.999 26.3653C291.394 25.5392 290.843 24.6581 290.348 23.777C289.797 22.7857 289.191 21.8495 288.586 20.9133C287.98 20.0321 287.319 19.2061 286.658 18.4351C286.141 17.8678 285.574 17.3997 284.918 17.0748C285.744 16.9096 286.609 16.6507 287.374 16.3423C288.255 16.0119 289.136 15.5163 289.852 14.8554C290.568 14.2497 291.118 13.5337 291.559 12.7077C291.57 12.6911 291.575 12.6691 291.586 12.6471C291.597 12.6306 291.608 12.614 291.614 12.5975C292.055 11.7164 292.275 10.7251 292.275 9.73381C292.275 8.85267 292.054 7.97155 291.669 7.20055C291.229 6.37448 290.568 5.65855 289.797 5.10784C288.806 4.44698 287.705 3.95134 286.603 3.67598C285.061 3.29048 283.52 3.12527 281.978 3.18035H278.674L276.637 3.23542C276.251 3.23542 275.866 3.23542 275.425 3.29049H275.315L275.354 3.40063H275.26L275.359 3.42817L275.425 3.62092H275.536C275.811 3.62092 276.031 3.73105 276.251 3.95134C276.472 4.11655 276.582 4.50205 276.582 5.05276C276.582 5.65854 276.637 6.3194 276.637 6.98025V25.4842C276.637 26.2001 276.582 26.8059 276.582 27.4667C276.582 28.0174 276.417 28.3479 276.196 28.5681C275.976 28.7334 275.701 28.9536 275.425 29.0638L275.315 29.1189L275.425 29.4493H275.536C275.756 29.3942 275.976 29.3942 276.196 29.3942C276.527 29.3942 276.857 29.3391 277.187 29.3391H280.491C280.822 29.3391 281.152 29.3942 281.427 29.3942C281.703 29.4493 281.923 29.4493 282.033 29.4493H282.143L282.253 29.0638L282.143 29.0087C281.868 28.8986 281.593 28.7334 281.372 28.5131C281.152 28.3479 281.042 27.9624 280.987 27.4117C280.987 26.8609 280.932 26.3102 280.932 25.8146V17.2786H281.868C282.529 17.4438 283.134 17.8293 283.465 18.4351C283.96 19.151 284.346 19.977 284.676 20.8031C285.061 21.7393 285.392 22.6755 285.777 23.7219C286.108 24.7132 286.603 25.6494 287.154 26.5856C287.705 27.4667 288.365 28.1826 289.191 28.7884C290.127 29.3942 291.229 29.7246 292.33 29.6696C292.825 29.6696 293.376 29.6145 293.872 29.5594C294.422 29.5044 294.918 29.3391 295.358 29.0087L295.413 28.9537L295.358 28.5131L295.138 28.458ZM280.877 15.5163V9.07296C280.877 7.31069 280.877 5.87884 280.932 4.72235C281.075 4.70583 281.213 4.6893 281.356 4.67828C282.022 4.6948 282.677 4.75538 283.299 4.88755C284.07 4.9977 284.841 5.27305 285.557 5.65855C286.218 6.04405 286.768 6.5397 287.154 7.20055C287.594 7.97155 287.815 8.90774 287.76 9.78888C287.87 10.7802 287.649 11.7715 287.209 12.6526C286.824 13.4236 286.273 14.0294 285.557 14.525C284.841 14.9656 284.07 15.296 283.244 15.4061C282.49 15.5659 281.686 15.5714 280.877 15.5163Z" fill="white" fill-opacity="0.45"></path><path d="M322.78 24.603L322.67 24.7132C321.623 25.5393 320.467 26.145 319.201 26.5305C317.769 26.9711 316.282 27.3015 314.796 27.4668C313.254 27.687 311.712 27.7972 310.17 27.7972C308.777 27.7972 307.489 27.7972 306.349 27.7476C306.723 27.2079 307.098 26.5691 307.527 25.9248L309.124 23.5016C309.73 22.5654 310.391 21.5741 311.161 20.3626C311.932 19.2061 312.813 17.8293 313.804 16.2873C315.787 13.2584 317.439 10.7251 318.76 8.68749C320.082 6.70493 321.183 5.05279 322.064 3.78616L322.119 3.73108L321.899 3.23545H321.871L321.844 3.18037H302.682V3.29052C302.627 3.51081 302.517 3.78616 302.406 4.11659L301.966 5.32814C301.801 5.76871 301.636 6.15422 301.47 6.53972C301.305 6.92521 301.14 7.25565 301.03 7.47593L300.975 7.58606L301.415 7.75129L301.47 7.69621C302.296 6.87015 303.342 6.26435 304.444 5.87886C305.71 5.43829 306.977 5.10787 308.298 4.94266C309.675 4.72237 311.106 4.61223 312.483 4.61223H316.227C315.842 5.21801 315.456 5.82379 315.071 6.48464L313.474 8.90777C312.868 9.84398 312.208 10.8903 311.437 12.0468C310.666 13.2033 309.785 14.5801 308.794 16.067C306.756 19.151 305.104 21.6843 303.783 23.7219C302.461 25.7596 301.305 27.4117 300.424 28.6783L300.369 28.7334L300.644 29.1189H321.403V29.0087C321.458 28.6783 321.568 28.403 321.678 28.0725C321.789 27.687 321.954 27.3566 322.064 26.916C322.229 26.5305 322.339 26.145 322.504 25.7595C322.615 25.4842 322.78 25.2088 322.945 24.9335L323 24.8784L322.78 24.603Z" fill="white" fill-opacity="0.45"></path><path d="M269.847 28.6288C269.655 28.4966 269.479 28.3479 269.313 28.1827C268.983 27.8523 268.686 27.4888 268.46 27.1198C268.388 26.9987 268.322 26.872 268.267 26.7509C267.937 26.1451 267.661 25.5393 267.331 24.9335C267.001 24.3828 266.725 23.7219 266.34 22.9509C266.246 22.7582 266.147 22.5599 266.048 22.3617C265.85 21.9597 265.646 21.5301 265.426 21.0565C265.316 20.8197 265.195 20.5719 265.074 20.313C264.578 19.3218 263.972 18.0551 263.256 16.5682C262.541 15.0813 261.88 13.6494 261.219 12.2726C260.889 11.5843 260.586 10.9124 260.3 10.268C260.008 9.62922 259.732 9.02345 259.457 8.47274C258.906 7.31624 258.466 6.21481 258.025 5.2786C257.915 5.0473 257.811 4.82151 257.717 4.60673C257.524 4.17718 257.359 3.78618 257.222 3.42822C257.155 3.24648 257.089 3.07576 257.034 2.91055L256.979 2.85547H256.263L256.208 2.91055C255.933 3.51633 255.603 4.34239 255.217 5.2786C254.777 6.21481 254.336 7.26117 253.786 8.47274C253.235 9.62923 252.684 10.8959 252.024 12.2726C251.363 13.6494 250.702 15.0813 249.986 16.5682L248.169 20.3681C247.674 21.4144 247.233 22.3507 246.848 23.1216C246.462 23.8926 246.077 24.6086 245.801 25.2144C245.471 25.8201 245.196 26.4259 244.865 27.0868C244.315 28.1331 243.654 28.794 242.828 29.0143L242.718 29.0693L242.828 29.4548H242.938C243.324 29.3998 243.709 29.3447 244.15 29.3447C244.59 29.3447 245.031 29.2896 245.361 29.2896C245.691 29.2896 246.242 29.2896 246.738 29.3447C247.178 29.3447 247.619 29.3998 248.004 29.4548H248.114L248.224 29.0693L248.114 29.0143C248.004 28.9592 247.839 28.9041 247.619 28.794C247.453 28.7389 247.288 28.6288 247.178 28.5186C246.903 28.2433 246.848 27.8027 247.068 27.4723C247.233 27.0317 247.453 26.5911 247.619 26.1506L248.059 24.9941L248.775 23.1216V23.0666C248.775 23.0115 248.83 22.9564 248.83 22.9014H261.605C261.935 23.5622 262.045 23.7825 262.155 24.0028C262.265 24.168 262.32 24.2782 262.486 24.7187C262.926 25.5999 263.311 26.5361 263.697 27.4172C263.807 27.6375 263.807 27.8578 263.807 28.0781C263.752 28.2433 263.697 28.3534 263.587 28.4636C263.477 28.5737 263.311 28.6838 263.146 28.7389C262.981 28.794 262.816 28.9041 262.706 28.9592L262.596 29.0143L262.706 29.3998H262.816C262.981 29.3998 263.256 29.3447 263.587 29.3447C263.972 29.3447 264.358 29.2896 264.798 29.2896H268.653C268.983 29.2896 269.313 29.3447 269.644 29.3447C269.974 29.3447 270.194 29.3998 270.36 29.3998H270.47L270.58 29.0143L270.47 28.9592C270.249 28.8766 270.04 28.7664 269.847 28.6343V28.6288ZM249.546 21.4089L251.583 16.7279C252.189 15.4613 252.629 14.47 252.96 13.699L254.501 10.0643C254.667 9.62371 254.887 9.18316 255.162 8.57737C255.437 9.12808 255.658 9.56865 255.768 9.89908L256.374 11.2759C256.594 11.7715 256.869 12.4324 257.255 13.2584C257.585 14.0845 258.136 15.1859 258.796 16.6728L260.944 21.4089H249.546Z" fill="white" fill-opacity="0.45"></path><path d="M151.093 7.53097C151.313 7.28866 151.539 7.05736 151.776 6.84258C152.541 6.14318 153.395 5.57595 154.342 5.16292C155.608 4.61221 156.93 4.28178 158.306 4.28178C160.784 4.28178 162.932 4.88757 164.583 6.04406C166.29 7.25563 167.612 8.85269 168.438 10.7251L168.493 10.8352L168.933 10.67L168.768 6.37449L168.713 6.31942C168.108 5.65856 167.392 5.10785 166.621 4.61221C165.795 4.11657 164.969 3.73106 164.088 3.40064C163.152 3.07021 162.216 2.79486 161.28 2.62964C160.289 2.46443 159.353 2.40936 158.361 2.40936C156.379 2.40936 154.452 2.73978 152.58 3.40064C150.818 4.00642 149.166 4.94263 147.734 6.15419C146.358 7.36576 145.201 8.85269 144.375 10.5048C142.723 14.0845 142.723 18.2698 144.375 21.8495C145.146 23.5016 146.303 24.9885 147.679 26.2001C149.111 27.4117 150.763 28.3479 152.525 28.9537C154.397 29.6145 156.324 29.9449 158.306 29.9449C160.289 29.9449 162.216 29.6145 164.033 28.9537C164.914 28.6232 165.795 28.2377 166.566 27.7421C167.337 27.2465 168.052 26.6957 168.658 26.0349L168.708 25.9853H168.823L168.933 23.3364L168.752 23.3144L168.438 23.2263L168.383 23.2813C167.392 24.8233 166.015 26.09 164.418 26.916C162.877 27.687 160.839 28.0725 158.361 28.0725C156.985 28.0725 155.608 27.7972 154.397 27.2465C153.13 26.6957 152.029 25.8697 151.093 24.8233C150.102 23.7219 149.331 22.4553 148.835 21.0234C148.263 19.4649 147.971 17.8183 147.971 16.1772C147.971 14.536 148.263 12.8894 148.835 11.3309C149.331 9.95412 150.102 8.68747 151.093 7.53097Z" fill="white" fill-opacity="0.45"></path><path d="M202.291 29.0032L202.302 28.9537L202.192 28.8986C201.933 28.794 201.674 28.6398 201.465 28.436C201.294 28.2433 201.195 27.8963 201.145 27.4117C201.145 26.8059 201.09 26.145 201.09 25.4291V7.04638C201.09 7.04638 201.09 7.04086 201.09 7.03535C201.09 6.3745 201.145 5.71365 201.145 5.10786C201.145 4.55715 201.311 4.17165 201.531 4.00644C201.751 3.78615 202.026 3.62094 202.302 3.5108L202.412 3.45573L202.395 3.40617H202.412L202.302 3.07024H202.192C202.081 3.07024 201.861 3.1253 201.531 3.1253C201.2 3.1253 200.925 3.18037 200.595 3.18037L199.659 3.23545H198.282C197.952 3.23545 197.676 3.23544 197.346 3.18037C197.016 3.1253 196.685 3.1253 196.41 3.1253C196.19 3.1253 195.969 3.07024 195.749 3.01517L195.639 2.96009L195.529 3.3456L195.639 3.40065C195.914 3.56587 196.19 3.73109 196.41 3.89631C196.63 4.11659 196.795 4.44702 196.795 4.99773C196.85 5.65858 196.85 6.20929 196.85 6.81507V12.928H181.543V6.87015C181.543 6.26436 181.598 5.65857 181.598 5.05279C181.598 4.44701 181.763 4.11658 181.983 3.95137C182.204 3.73108 182.479 3.56587 182.754 3.45573L182.864 3.40065L182.754 3.07024H182.716L182.699 3.01517H182.589C182.479 3.01517 182.259 3.07024 181.983 3.07024C181.708 3.07024 181.378 3.1253 181.047 3.1253L180.111 3.18037H178.735C178.404 3.18037 178.129 3.18037 177.799 3.1253C177.468 3.07023 177.138 3.07024 176.863 3.07024C176.642 3.07024 176.422 3.01516 176.202 2.96009L176.092 2.90502L175.982 3.29052L176.092 3.3456C176.367 3.51081 176.642 3.67602 176.863 3.84123C177.083 4.06152 177.248 4.39194 177.248 4.94266C177.248 5.54844 177.303 6.20929 177.303 6.87015V25.319C177.303 25.9798 177.248 26.6407 177.248 27.3015C177.248 27.8523 177.083 28.1827 176.863 28.403C176.642 28.5682 176.367 28.7885 176.092 28.8986L175.982 28.9537L176.092 29.2841H176.202C176.367 29.2841 176.587 29.229 176.863 29.229C177.193 29.229 177.468 29.174 177.799 29.174H180.111L181.983 29.2841C182.204 29.2841 182.369 29.2841 182.589 29.3392H182.699L182.738 29.2125L182.864 29.2841L182.975 28.8986L182.798 28.9867L182.809 28.9537L182.699 28.8986C182.424 28.7885 182.149 28.6233 181.928 28.403C181.879 28.3644 181.835 28.3093 181.796 28.2488C181.697 28.045 181.637 27.7641 181.598 27.4117C181.598 26.8059 181.543 26.145 181.543 25.4842V14.6902L181.488 14.6297V14.5801H196.795V25.3741C196.795 26.0349 196.74 26.5856 196.74 27.3015C196.74 27.8523 196.575 28.1827 196.355 28.403C196.135 28.5682 195.859 28.7885 195.584 28.8986L195.474 28.9537L195.584 29.2841H195.694C195.859 29.2841 196.08 29.229 196.355 29.229C196.685 29.229 196.961 29.174 197.291 29.174H199.604L201.476 29.2841C201.696 29.2841 201.861 29.2841 202.081 29.3392H202.192L202.208 29.2731L202.357 29.3392L202.467 28.9537L202.302 29.0087C202.302 29.0087 202.291 29.0088 202.291 29.0032Z" fill="white" fill-opacity="0.45"></path></svg>