<svg xmlns="http://www.w3.org/2000/svg" width="168" height="34" viewBox="0 0 168 34" fill="none"><path d="M0 33.4156V1.63457L0.29272 1.34238H17.8347L22.2297 5.70407L22.374 14.4232L19.1032 17.379L22.1788 20.3348L22.2128 29.037L18.0256 33.4156H0ZM15.9808 7.56308H6.23621V14.3682H15.9808V7.56308ZM15.9808 20.3941H6.23621V27.3897H15.9808V20.3941ZM106.605 33.4156H100.369L96.4703 21.169H90.8195V33.4156H84.5833V1.53718H102.223L106.601 5.91581L106.567 16.5617L102.511 20.8811L106.605 33.4114V33.4156ZM100.369 7.36829H91.1122L90.8195 7.66048V15.1431H100.369V7.36829ZM78.7374 33.4156H72.5988L68.3098 21.169H62.9517V33.4156H56.7155V1.53718H74.3551L78.7374 6.1106L78.7035 16.3669L74.4654 20.8684L78.7459 33.4156H78.7374ZM72.5012 15.1431V7.66048L72.2085 7.36829H62.9517V15.1431H72.5012ZM168 11.4505H161.764V7.56308H152.409V13.3942L164.789 16.3034L167.958 19.9452V28.9989L163.821 33.2293L163.236 33.4241L150.598 33.3733L146.173 29.236V23.5023H152.409V27.3897H161.764V21.5586L150.021 18.9839C149.499 18.7764 146.279 15.3972 146.173 14.8509L146.207 5.75912L150.445 1.62611L163.766 1.57952L167.996 5.71678V11.4505H168ZM116.74 1.53718L122.976 13.7838L129.017 1.53718H135.839L125.899 20.8768V33.4156H119.663V20.6863L109.918 1.53718H116.74ZM28.4532 17.6712V9.60418L39.2966 0C39.9202 0.457342 43.9249 3.74766 43.8401 4.14572L28.4532 17.6754V17.6712ZM28.4532 30.6927V22.63L39.1651 13.2799L39.9414 13.5043L43.8359 17.0191L28.4532 30.6927ZM50.4751 30.8875L39.9499 21.4612L44.4977 17.6924C46.5849 19.3566 48.5788 21.1478 50.4793 23.0111V30.8833L50.4751 30.8875ZM50.4751 17.6712L39.9541 8.43966L44.5358 4.48873L50.4751 9.79898V17.6712ZM144.612 1.34662L140.713 8.53705H136.229L140.03 1.34662H144.612ZM40.3402 29.1386H43.4583L41.1081 31.023L41.8971 34L39.462 32.3104L36.9336 34L37.8245 31.0146L35.2749 29.1386H38.5881L39.4663 26.2209L40.3402 29.1386Z" fill="white" fill-opacity="0.45"></path></svg>